<svg width="60" height="60" viewBox="0 0 60 60" fill="none" xmlns="http://www.w3.org/2000/svg">
<path d="M30 5.00024V10.0002M22.5 30.0002V52.5002M37.5 30.0002V52.5002M12.5 40.0002L22.5 35.0002M37.5 35.0002L47.5 40.0002M22.5 45.0002H37.5M25 20.0002V20.0252M35 20.0002V20.0252M15 15.0002C15 13.6742 15.5268 12.4024 16.4645 11.4647C17.4021 10.527 18.6739 10.0002 20 10.0002H40C41.3261 10.0002 42.5979 10.527 43.5355 11.4647C44.4732 12.4024 45 13.6742 45 15.0002V25.0002C45 26.3263 44.4732 27.5981 43.5355 28.5358C42.5979 29.4735 41.3261 30.0002 40 30.0002H20C18.6739 30.0002 17.4021 29.4735 16.4645 28.5358C15.5268 27.5981 15 26.3263 15 25.0002V15.0002Z" stroke="white" stroke-width="4" stroke-linecap="round" stroke-linejoin="round"/>
</svg>
