<svg width="60" height="60" viewBox="0 0 60 60" fill="none" xmlns="http://www.w3.org/2000/svg">
<path d="M30 1.875C14.467 1.875 1.875 14.467 1.875 30C1.875 45.533 14.467 58.125 30 58.125C45.533 58.125 58.125 45.533 58.125 30C58.125 14.467 45.533 1.875 30 1.875ZM47.2357 47.2357C42.9619 51.4967 37.2548 54.014 31.2264 54.297C25.1981 54.58 19.2802 52.6084 14.6261 48.7665C9.97193 44.9246 6.91484 39.4875 6.05049 33.5147C5.18614 27.5419 6.57646 21.4613 9.95053 16.4575C13.3246 11.4538 18.4407 7.88553 24.302 6.44792C30.1633 5.01031 36.3499 5.80638 41.6563 8.68101C46.9627 11.5556 51.0088 16.3029 53.0062 21.9978C55.0036 27.6927 54.8093 33.9273 52.461 39.4867C51.2372 42.3835 49.4626 45.0153 47.2357 47.2357Z" fill="white"/>
<path d="M17.8123 23.4375H22.4998V28.125H17.8123V23.4375ZM37.4998 23.4375H42.1873V28.125H37.4998V23.4375ZM39.6431 36C38.9178 37.8302 37.6579 39.3995 36.0276 40.5032C34.3974 41.6069 32.4725 42.1938 30.5037 42.1875H29.4959C27.5272 42.1939 25.6021 41.607 23.9718 40.5033C22.3415 39.3996 21.0816 37.8303 20.3562 36L20.2064 35.625H16.168L16.8748 37.3923C17.8838 39.9148 19.6255 42.077 21.8751 43.6002C24.1247 45.1233 26.7792 45.9374 29.4959 45.9375H30.5037C33.2205 45.9374 35.8749 45.1233 38.1246 43.6002C40.3742 42.077 42.1159 39.9148 43.1248 37.3923L43.8317 35.625H39.793L39.6431 36Z" fill="white"/>
</svg>
