<svg width="60" height="60" viewBox="0 0 60 60" fill="none" xmlns="http://www.w3.org/2000/svg">
<path fill-rule="evenodd" clip-rule="evenodd" d="M33.3425 3.12524H39.1575C42.145 3.12524 44.5225 3.12524 46.4275 3.30524C48.38 3.49274 50.0325 3.88024 51.5025 4.78274C53.017 5.71122 54.29 6.98515 55.2175 8.50024C56.1175 9.97024 56.5075 11.6227 56.6925 13.5752C56.875 15.4802 56.875 17.8577 56.875 20.8452V22.8827C56.875 25.0077 56.875 26.7002 56.78 28.0727C56.685 29.4752 56.485 30.6802 56.0175 31.8077C55.4524 33.1729 54.624 34.4133 53.5795 35.4582C52.535 36.5031 51.2949 37.3321 49.93 37.8977C48.98 38.2902 47.9725 38.4952 46.8275 38.6077C46.8125 38.9577 46.7958 39.2894 46.7775 39.6027C46.675 41.0927 46.4625 42.3627 45.97 43.5477C44.7648 46.4565 42.4537 48.7675 39.545 49.9727C38.0525 50.5927 36.4075 50.7727 34.3375 50.8402C33.2225 50.8752 32.5125 50.9002 31.97 50.9652C31.46 51.0277 31.2675 51.1102 31.1625 51.1727C31.0475 51.2402 30.8875 51.3652 30.6125 51.7477C30.3125 52.1602 29.9725 52.7302 29.4375 53.6377L28.7875 54.7327C27.095 57.5927 22.905 57.5927 21.2125 54.7327L20.5625 53.6377C20.0275 52.7302 19.6875 52.1602 19.3875 51.7477C19.1125 51.3652 18.9525 51.2402 18.8375 51.1727C18.7325 51.1102 18.54 51.0277 18.03 50.9652C17.2428 50.8924 16.453 50.8507 15.6625 50.8402C13.5925 50.7727 11.9475 50.5902 10.455 49.9727C7.54626 48.7675 5.23521 46.4565 4.03 43.5477C3.5375 42.3627 3.325 41.0927 3.225 39.6027C3.125 38.1427 3.125 36.3427 3.125 34.0702V31.9052C3.125 28.7152 3.125 26.1852 3.3175 24.1602C3.515 22.0852 3.9275 20.3452 4.875 18.7977C5.85378 17.1992 7.19707 15.855 8.795 14.8752C10.3425 13.9252 12.0825 13.5152 14.1575 13.3177C14.6825 13.2677 15.245 13.2294 15.845 13.2027C16.045 11.4027 16.445 9.86774 17.2825 8.49774C18.211 6.98327 19.4849 5.7102 21 4.78274C22.47 3.88274 24.1225 3.49274 26.075 3.30774C27.98 3.12524 30.3575 3.12524 33.3425 3.12524ZM19.63 13.1277L21.9 13.1252H28.095C31.285 13.1252 33.815 13.1252 35.84 13.3177C37.915 13.5152 39.655 13.9277 41.2025 14.8752C42.8001 15.8543 44.1434 17.1976 45.1225 18.7952C46.0725 20.3427 46.4825 22.0827 46.68 24.1577C46.8725 26.1827 46.8725 28.7127 46.8725 31.9027V34.8252C47.4277 34.7665 47.9726 34.6337 48.4925 34.4302C49.4027 34.0533 50.2298 33.5008 50.9264 32.8041C51.623 32.1075 52.1756 31.2805 52.5525 30.3702C52.7975 29.7752 52.9525 29.0277 53.0375 27.8152C53.1225 26.5852 53.1225 25.0227 53.1225 22.8127V20.9377C53.1225 17.8327 53.1225 15.6377 52.9575 13.9277C52.7975 12.2502 52.4975 11.2402 52.0175 10.4577C51.3993 9.44909 50.5512 8.60099 49.5425 7.98274C48.7575 7.50024 47.7475 7.20024 46.0675 7.04024C44.3625 6.87774 42.165 6.87524 39.06 6.87524H33.435C30.33 6.87524 28.1325 6.87524 26.425 7.04024C24.7475 7.20024 23.7375 7.50024 22.9525 7.98024C21.9438 8.59849 21.0957 9.44659 20.4775 10.4552C20.0775 11.1127 19.8025 11.9152 19.63 13.1277ZM14.51 17.0552C12.71 17.2252 11.61 17.5502 10.7525 18.0752C9.65919 18.7452 8.73997 19.6644 8.07 20.7577C7.545 21.6152 7.22 22.7152 7.0475 24.5152C6.8725 26.3402 6.8725 28.6927 6.8725 32.0027V34.0027C6.8725 36.3577 6.8725 38.0302 6.9625 39.3477C7.0525 40.6477 7.22 41.4602 7.49 42.1127C7.89861 43.0988 8.49751 43.9947 9.25248 44.7493C10.0074 45.5038 10.9037 46.1022 11.89 46.5102C12.7225 46.8552 13.8 47.0277 15.78 47.0902L15.8575 47.0927C16.8725 47.1252 17.7525 47.1552 18.4825 47.2427C19.2575 47.3377 20.02 47.5177 20.7425 47.9427C21.455 48.3677 21.97 48.9252 22.4175 49.5427C22.835 50.1177 23.2625 50.8402 23.75 51.6602L24.4375 52.8227C24.4949 52.9192 24.5771 52.9984 24.6757 53.052C24.7742 53.1057 24.8854 53.1319 24.9975 53.1277C25.1096 53.1319 25.2208 53.1057 25.3193 53.052C25.4179 52.9984 25.5001 52.9192 25.5575 52.8227L26.245 51.6602C26.73 50.8402 27.16 50.1152 27.575 49.5427C28.0134 48.8965 28.5844 48.3511 29.25 47.9427C29.975 47.5177 30.7375 47.3377 31.515 47.2427C32.3868 47.1574 33.2617 47.1074 34.1375 47.0927H34.2125C36.195 47.0277 37.27 46.8552 38.1075 46.5102C39.0936 46.1016 39.9895 45.5027 40.744 44.7478C41.4986 43.9928 42.097 43.0966 42.505 42.1102C42.775 41.4602 42.9425 40.6452 43.03 39.3477C43.1225 38.0302 43.1225 36.3577 43.1225 34.0027V32.0027C43.1225 28.6927 43.1225 26.3427 42.9475 24.5152C42.775 22.7152 42.45 21.6152 41.925 20.7577C41.255 19.6644 40.3358 18.7452 39.2425 18.0752C38.385 17.5502 37.285 17.2252 35.485 17.0527C33.66 16.8777 31.3075 16.8777 27.9975 16.8777H22C18.69 16.8777 16.34 16.8777 14.5125 17.0527" fill="white"/>
<path d="M18.75 32.5C18.75 33.163 18.4866 33.7989 18.0178 34.2678C17.5489 34.7366 16.913 35 16.25 35C15.587 35 14.9511 34.7366 14.4822 34.2678C14.0134 33.7989 13.75 33.163 13.75 32.5C13.75 31.837 14.0134 31.2011 14.4822 30.7322C14.9511 30.2634 15.587 30 16.25 30C16.913 30 17.5489 30.2634 18.0178 30.7322C18.4866 31.2011 18.75 31.837 18.75 32.5ZM27.5 32.5C27.5 33.163 27.2366 33.7989 26.7678 34.2678C26.2989 34.7366 25.663 35 25 35C24.337 35 23.7011 34.7366 23.2322 34.2678C22.7634 33.7989 22.5 33.163 22.5 32.5C22.5 31.837 22.7634 31.2011 23.2322 30.7322C23.7011 30.2634 24.337 30 25 30C25.663 30 26.2989 30.2634 26.7678 30.7322C27.2366 31.2011 27.5 31.837 27.5 32.5ZM36.25 32.5C36.25 33.163 35.9866 33.7989 35.5178 34.2678C35.0489 34.7366 34.413 35 33.75 35C33.087 35 32.4511 34.7366 31.9822 34.2678C31.5134 33.7989 31.25 33.163 31.25 32.5C31.25 31.837 31.5134 31.2011 31.9822 30.7322C32.4511 30.2634 33.087 30 33.75 30C34.413 30 35.0489 30.2634 35.5178 30.7322C35.9866 31.2011 36.25 31.837 36.25 32.5Z" fill="white"/>
</svg>
