<svg width="60" height="60" viewBox="0 0 60 60" fill="none" xmlns="http://www.w3.org/2000/svg">
<path d="M37.5 15C37.5 10.8579 34.1421 7.5 30 7.5C25.8579 7.5 22.5 10.8579 22.5 15V27.5C22.5 31.6421 25.8579 35 30 35C34.1421 35 37.5 31.6421 37.5 27.5V15Z" stroke="white" stroke-width="4" stroke-linecap="round" stroke-linejoin="round"/>
<path d="M47.6467 30.8823C47.6467 32.9101 47.1902 34.918 46.3034 36.7914C45.4165 38.6648 44.1166 40.367 42.478 41.8009C40.8393 43.2347 38.8939 44.3721 36.7528 45.1481C34.6118 45.9241 32.317 46.3235 29.9996 46.3235M29.9996 46.3235C27.6822 46.3235 25.3874 45.9241 23.2464 45.1481C21.1053 44.3721 19.1599 43.2347 17.5212 41.8009C15.8826 40.367 14.5827 38.6648 13.6958 36.7914C12.809 34.918 12.3525 32.9101 12.3525 30.8823M29.9996 46.3235V52.9411" stroke="white" stroke-width="4" stroke-linecap="round" stroke-linejoin="round"/>
</svg>
