<svg width="34" height="34" viewBox="0 0 34 34" fill="none" xmlns="http://www.w3.org/2000/svg">
<path d="M18.4165 15.7959H9.9165" stroke="#0E8FE3" stroke-width="2" stroke-linecap="round" stroke-linejoin="round"/>
<path d="M2.8335 15.7957V9.2507C2.8335 6.3607 5.171 4.02319 8.061 4.02319H16.0227C18.9127 4.02319 21.2502 5.82236 21.2502 8.71236" stroke="#0E8FE3" stroke-width="2" stroke-linecap="round" stroke-linejoin="round"/>
<path d="M24.7635 17.2832C24.0551 17.9632 23.7152 19.0115 23.9985 20.0882C24.3527 21.4057 25.656 22.2416 27.016 22.2416H28.3335V24.2957C28.3335 27.4266 25.7977 29.9624 22.6668 29.9624H8.50016C5.36933 29.9624 2.8335 27.4266 2.8335 24.2957V14.3791C2.8335 11.2482 5.36933 8.7124 8.50016 8.7124H22.6668C25.7835 8.7124 28.3335 11.2624 28.3335 14.3791V16.4332H26.8035C26.0101 16.4332 25.2876 16.7449 24.7635 17.2832Z" stroke="#0E8FE3" stroke-width="2" stroke-linecap="round" stroke-linejoin="round"/>
<path d="M31.1666 17.8784V20.7967C31.1666 21.59 30.5149 22.2417 29.7074 22.2417H26.9733C25.4433 22.2417 24.0408 21.1226 23.9133 19.5926C23.8283 18.7001 24.1683 17.8642 24.7633 17.2834C25.2874 16.7451 26.01 16.4333 26.8033 16.4333H29.7074C30.5149 16.4333 31.1666 17.085 31.1666 17.8784Z" stroke="#0E8FE3" stroke-width="2" stroke-linecap="round" stroke-linejoin="round"/>
</svg>
