<svg width="34" height="34" viewBox="0 0 34 34" fill="none" xmlns="http://www.w3.org/2000/svg">
<path d="M21.8027 7.38075L23.8002 11.3757C24.0693 11.9282 24.7918 12.4524 25.401 12.5657L29.0135 13.1607C31.3227 13.5432 31.861 15.2149 30.2035 16.8866L27.3843 19.7057C26.9168 20.1732 26.6477 21.0941 26.8035 21.7599L27.611 25.2449C28.2485 27.9933 26.7752 29.0699 24.3527 27.6249L20.9668 25.6132C20.3577 25.2449 19.3377 25.2449 18.7285 25.6132L15.3427 27.6249C12.9202 29.0557 11.4468 27.9933 12.0843 25.2449L12.8918 21.7599C13.0477 21.1082 12.7785 20.1874 12.311 19.7057L9.49186 16.8866C7.83436 15.2291 8.37269 13.5574 10.6819 13.1607L14.2943 12.5657C14.9035 12.4666 15.626 11.9282 15.8952 11.3757L17.8927 7.38075C18.9552 5.21325 20.7119 5.21325 21.8027 7.38075Z" stroke="#0E8FE3" stroke-width="2" stroke-linecap="round" stroke-linejoin="round"/>
<path d="M11.3335 7.08325H2.8335" stroke="#0E8FE3" stroke-width="2" stroke-linecap="round" stroke-linejoin="round"/>
<path d="M7.0835 26.9167H2.8335" stroke="#0E8FE3" stroke-width="2" stroke-linecap="round" stroke-linejoin="round"/>
<path d="M4.25016 17H2.8335" stroke="#0E8FE3" stroke-width="2" stroke-linecap="round" stroke-linejoin="round"/>
</svg>
