<svg width="35" height="34" viewBox="0 0 35 34" fill="none" xmlns="http://www.w3.org/2000/svg">
<path d="M17.5002 21.9582C20.631 21.9582 23.1668 19.4224 23.1668 16.2916V8.49992C23.1668 5.36908 20.631 2.83325 17.5002 2.83325C14.3693 2.83325 11.8335 5.36908 11.8335 8.49992V16.2916C11.8335 19.4224 14.3693 21.9582 17.5002 21.9582Z" stroke="#0E8FE3" stroke-width="2" stroke-linecap="round" stroke-linejoin="round"/>
<path d="M6.6626 13.6709V16.0792C6.6626 22.0576 11.5218 26.9167 17.5001 26.9167C23.4784 26.9167 28.3376 22.0576 28.3376 16.0792V13.6709" stroke="#0E8FE3" stroke-width="2" stroke-linecap="round" stroke-linejoin="round"/>
<path d="M15.5308 9.10917C16.8058 8.64167 18.1941 8.64167 19.4691 9.10917" stroke="#0E8FE3" stroke-width="2" stroke-linecap="round" stroke-linejoin="round"/>
<path d="M16.3667 12.1124C17.1175 11.914 17.8967 11.914 18.6475 12.1124" stroke="#0E8FE3" stroke-width="2" stroke-linecap="round" stroke-linejoin="round"/>
<path d="M17.5 26.9167V31.1667" stroke="#0E8FE3" stroke-width="2" stroke-linecap="round" stroke-linejoin="round"/>
</svg>
