<svg width="49" height="48" viewBox="0 0 49 48" fill="none" xmlns="http://www.w3.org/2000/svg">
<path d="M24.5 0.75C11.6555 0.75 1.25 11.157 1.25 24C1.25 36.843 11.657 47.25 24.5 47.25C37.343 47.25 47.75 36.843 47.75 24C47.75 11.157 37.343 0.75 24.5 0.75ZM35.9195 16.6785L32.1035 34.6605C31.8215 35.9355 31.0625 36.2445 30.0035 35.6445L24.191 31.3605L21.3875 34.0605C21.0785 34.3695 20.816 34.632 20.216 34.632L20.6285 28.716L31.4 18.984C31.8695 18.5715 31.2965 18.3375 30.677 18.75L17.3645 27.1305L11.627 25.3395C10.3805 24.9465 10.352 24.093 11.8895 23.493L34.3055 14.8485C35.3465 14.4735 36.2555 15.102 35.918 16.677L35.9195 16.6785Z" fill="#0E8FE3"/>
</svg>
