<svg width="48" height="48" viewBox="0 0 48 48" fill="none" xmlns="http://www.w3.org/2000/svg">
<path d="M23.9997 10.0009C23.9975 9.20234 23.836 8.41229 23.5245 7.67701C23.2131 6.94173 22.758 6.276 22.186 5.71886C21.614 5.16172 20.9365 4.72437 20.1932 4.43244C19.45 4.1405 18.6559 3.99987 17.8577 4.01877C17.0594 4.03767 16.2729 4.21573 15.5443 4.54252C14.8157 4.8693 14.1596 5.33823 13.6146 5.92182C13.0696 6.50541 12.6465 7.19193 12.3703 7.94113C12.094 8.69033 11.97 9.48714 12.0057 10.2849C10.8301 10.5871 9.73866 11.153 8.81412 11.9395C7.88958 12.726 7.15614 13.7126 6.66935 14.8246C6.18256 15.9365 5.95518 17.1447 6.00444 18.3575C6.0537 19.5703 6.3783 20.756 6.95366 21.8249C5.94202 22.6467 5.14651 23.7033 4.63634 24.9027C4.12616 26.1021 3.91678 27.408 4.02639 28.7068C4.136 30.0056 4.56129 31.258 5.26527 32.3549C5.96925 33.4518 6.93059 34.3602 8.06566 35.0009C7.81857 36.9125 8.27 38.8491 9.33692 40.4544C10.4038 42.0598 12.0145 43.226 13.8727 43.7384C15.7309 44.2509 17.7116 44.0753 19.4506 43.2438C21.1896 42.4123 22.5699 40.9809 23.3377 39.2129C23.4814 38.8601 23.5912 38.4944 23.6657 38.1209C23.7217 37.8609 24.2777 37.8609 24.3357 38.1209C24.4094 38.4944 24.5186 38.86 24.6617 39.2129C25.4294 40.9809 26.8097 42.4123 28.5487 43.2438C30.2877 44.0753 32.2685 44.2509 34.1266 43.7384C35.9848 43.226 37.5955 42.0598 38.6624 40.4544C39.7293 38.8491 40.1807 36.9125 39.9337 35.0009C41.0687 34.3602 42.0301 33.4518 42.7341 32.3549C43.438 31.258 43.8633 30.0056 43.9729 28.7068C44.0825 27.408 43.8732 26.1021 43.363 24.9027C42.8528 23.7033 42.0573 22.6467 41.0457 21.8249C41.621 20.756 41.9456 19.5703 41.9949 18.3575C42.0441 17.1447 41.8168 15.9365 41.33 14.8246C40.8432 13.7126 40.1097 12.726 39.1852 11.9395C38.2607 11.153 37.1693 10.5871 35.9937 10.2849C36.0293 9.48714 35.9053 8.69033 35.6291 7.94113C35.3528 7.19193 34.9297 6.50541 34.3847 5.92182C33.8397 5.33823 33.1836 4.8693 32.455 4.54252C31.7265 4.21573 30.94 4.03767 30.1417 4.01877C29.3434 3.99987 28.5493 4.1405 27.8061 4.43244C27.0629 4.72437 26.3854 5.16172 25.8133 5.71886C25.2413 6.276 24.7862 6.94173 24.4748 7.67701C24.1634 8.41229 24.0018 9.20234 23.9997 10.0009Z" stroke="#0E8FE3" stroke-width="3" stroke-linecap="round" stroke-linejoin="round"/>
<path d="M35.1971 13.0005C35.6812 12.1617 35.955 11.2181 35.9951 10.2505M12.0051 10.2505C12.0447 11.218 12.3178 12.1615 12.8011 13.0005M6.95312 21.7925C7.319 21.4945 7.71053 21.2295 8.12312 21.0005M39.8751 21.0005C40.2877 21.2295 40.6792 21.4945 41.0451 21.7925M11.9991 36.0005C10.6208 36.0011 9.26566 35.6456 8.06512 34.9685M39.9331 34.9685C38.7326 35.6456 37.3775 36.0011 35.9991 36.0005" stroke="#0E8FE3" stroke-width="2" stroke-linecap="round" stroke-linejoin="round"/>
<path d="M24 30.0005C27.3137 30.0005 30 27.3142 30 24.0005C30 20.6868 27.3137 18.0005 24 18.0005C20.6863 18.0005 18 20.6868 18 24.0005C18 27.3142 20.6863 30.0005 24 30.0005Z" stroke="#0E8FE3" stroke-width="2" stroke-linecap="round" stroke-linejoin="round"/>
<path d="M31.3996 20.8008L29.5996 21.6008M18.3996 26.4008L16.5996 27.2008M27.1996 31.4008L26.3996 29.6008M21.5996 18.4008L20.7996 16.6008M31.3996 27.0008L29.5996 26.2008M18.3996 21.8008L16.5996 21.0008M20.9996 31.4008L21.7996 29.6008M26.1996 18.4008L26.9996 16.6008" stroke="#0E8FE3" stroke-width="3" stroke-linecap="round" stroke-linejoin="round"/>
</svg>
