<svg width="48" height="48" viewBox="0 0 48 48" fill="none" xmlns="http://www.w3.org/2000/svg">
<path d="M42.5 11.0005C42.1022 11.0005 41.7206 10.8425 41.4393 10.5611C41.158 10.2798 41 9.89831 41 9.50049C41 9.10266 41.158 8.72113 41.4393 8.43983C41.7206 8.15852 42.1022 8.00049 42.5 8.00049C42.8978 8.00049 43.2794 8.15852 43.5607 8.43983C43.842 8.72113 44 9.10266 44 9.50049C44 9.89831 43.842 10.2798 43.5607 10.5611C43.2794 10.8425 42.8978 11.0005 42.5 11.0005ZM42.5 11.0005V18.5005C42.5 19.8965 42.5 20.5945 42.328 21.1605C42.1373 21.7902 41.7942 22.3631 41.3292 22.8284C40.8642 23.2938 40.2915 23.6373 39.662 23.8285C39.094 24.0005 38.396 24.0005 37 24.0005M5.5 37.0005C5.89782 37.0005 6.27936 37.1585 6.56066 37.4398C6.84196 37.7211 7 38.1027 7 38.5005C7 38.8983 6.84196 39.2798 6.56066 39.5611C6.27936 39.8425 5.89782 40.0005 5.5 40.0005C5.10218 40.0005 4.72064 39.8425 4.43934 39.5611C4.15804 39.2798 4 38.8983 4 38.5005C4 38.1027 4.15804 37.7211 4.43934 37.4398C4.72064 37.1585 5.10218 37.0005 5.5 37.0005ZM5.5 37.0005V29.5005C5.5 28.1045 5.5 27.4065 5.672 26.8405C5.8627 26.2108 6.20576 25.6379 6.6708 25.1725C7.13583 24.7072 7.70848 24.3637 8.338 24.1725C8.906 24.0005 9.604 24.0005 11 24.0005M11 5.50049C11 5.89831 10.842 6.27984 10.5607 6.56115C10.2794 6.84245 9.89782 7.00049 9.5 7.00049C9.10218 7.00049 8.72064 6.84245 8.43934 6.56115C8.15804 6.27984 8 5.89831 8 5.50049C8 5.10266 8.15804 4.72113 8.43934 4.43983C8.72064 4.15852 9.10218 4.00049 9.5 4.00049C9.89782 4.00049 10.2794 4.15852 10.5607 4.43983C10.842 4.72113 11 5.10266 11 5.50049ZM11 5.50049H18.5C19.896 5.50049 20.594 5.50049 21.16 5.67249C21.7897 5.86318 22.3626 6.20625 22.828 6.67129C23.2933 7.13632 23.6368 7.70897 23.828 8.33849C24 8.90649 24 9.60449 24 11.0005M37 42.5005C37 42.1027 37.158 41.7211 37.4393 41.4398C37.7206 41.1585 38.1022 41.0005 38.5 41.0005C38.8978 41.0005 39.2794 41.1585 39.5607 41.4398C39.842 41.7211 40 42.1027 40 42.5005C40 42.8983 39.842 43.2798 39.5607 43.5611C39.2794 43.8425 38.8978 44.0005 38.5 44.0005C38.1022 44.0005 37.7206 43.8425 37.4393 43.5611C37.158 43.2798 37 42.8983 37 42.5005ZM37 42.5005H29.5C28.104 42.5005 27.406 42.5005 26.84 42.3285C26.2103 42.1378 25.6374 41.7947 25.172 41.3297C24.7067 40.8647 24.3632 40.292 24.172 39.6625C24 39.0945 24 38.3965 24 37.0005" stroke="#0E8FE3" stroke-width="3" stroke-linecap="round" stroke-linejoin="round"/>
<path d="M11.0977 23.9028C11.0977 17.7748 11.0977 14.7108 13.0017 12.8068C14.9057 10.9028 17.9697 10.9028 24.0977 10.9028C30.2257 10.9028 33.2897 10.9028 35.1937 12.8068C37.0977 14.7108 37.0977 17.7748 37.0977 23.9028C37.0977 30.0308 37.0977 33.0948 35.1937 34.9988C33.2897 36.9028 30.2257 36.9028 24.0977 36.9028C17.9697 36.9028 14.9057 36.9028 13.0017 34.9988C11.0977 33.0948 11.0977 30.0308 11.0977 23.9028Z" stroke="#0E8FE3" stroke-width="3" stroke-linecap="round" stroke-linejoin="round"/>
<path d="M24.9978 29.0008L22.0778 19.9588C21.9765 19.6735 21.7879 19.4273 21.5387 19.2554C21.2895 19.0834 20.9925 18.9943 20.6898 19.0008C20.3874 18.9947 20.0908 19.084 19.8421 19.256C19.5933 19.4279 19.405 19.6738 19.3038 19.9588L16.3838 29.0008M29.9978 19.0008V29.0008M17.4578 26.0008H23.9218" stroke="#0E8FE3" stroke-width="3" stroke-linecap="round" stroke-linejoin="round"/>
</svg>
