<svg width="48" height="48" viewBox="0 0 48 48" fill="none" xmlns="http://www.w3.org/2000/svg">
<path fill-rule="evenodd" clip-rule="evenodd" d="M23.9998 45C27.2204 45 32.7272 40.8 32.7272 24C32.7272 7.2 27.2204 3 23.9998 3C20.7793 3 15.2725 7.48302 15.2725 24C15.2725 40.517 20.7793 45 23.9998 45Z" stroke="#0E8FE3" stroke-width="3" stroke-linecap="round" stroke-linejoin="round"/>
<path fill-rule="evenodd" clip-rule="evenodd" d="M5.10418 35.0003C6.71448 37.8126 13.2469 40.4213 28.363 31.6213C43.479 22.8213 44.5047 15.8126 42.8944 13.0003C41.2841 10.188 34.4971 7.7275 19.6357 16.3793C4.77424 25.031 3.49392 32.188 5.10418 35.0003Z" stroke="#0E8FE3" stroke-width="3" stroke-linecap="round" stroke-linejoin="round"/>
<path fill-rule="evenodd" clip-rule="evenodd" d="M5.10457 13.0003C3.49431 15.8126 4.51997 22.8213 19.6361 31.6213C34.7522 40.4213 41.2845 37.8126 42.8948 35.0003C44.5051 32.188 43.2248 25.031 28.3633 16.3793C13.5019 7.7275 6.71488 10.188 5.10457 13.0003Z" stroke="#0E8FE3" stroke-width="3" stroke-linecap="round" stroke-linejoin="round"/>
</svg>
