<svg width="42" height="42" viewBox="0 0 42 42" fill="none" xmlns="http://www.w3.org/2000/svg">
<path d="M40.6815 22.3185C40.2665 21.9011 39.7731 21.5697 39.2298 21.3434C38.6864 21.1172 38.1036 21.0005 37.515 21H37.5C36.9089 20.9985 36.3233 21.1142 35.7772 21.3406C35.2311 21.5669 34.7353 21.8993 34.3185 22.3185L26.967 29.67C26.886 28.5395 26.3806 27.4815 25.5521 26.7081C24.7236 25.9347 23.6334 25.5032 22.5 25.5H12C10.0116 25.5024 8.10534 26.2933 6.69933 27.6993C5.29332 29.1053 4.50238 31.0116 4.5 33V34.0005L0 39.9945L2.4 41.7945L7.5 34.9995V33C7.50119 31.8069 7.97568 30.663 8.81933 29.8193C9.66299 28.9757 10.8069 28.5012 12 28.5H22.5C22.8978 28.5 23.2794 28.658 23.5607 28.9393C23.842 29.2206 24 29.6022 24 30C24 30.3978 23.842 30.7794 23.5607 31.0607C23.2794 31.342 22.8978 31.5 22.5 31.5H16.5V34.5H23.8935C24.6817 34.5023 25.4626 34.3481 26.1908 34.0463C26.9189 33.7445 27.58 33.3012 28.1355 32.742L36.4395 24.4395C36.7207 24.1582 37.1022 24.0001 37.5 24H37.5045C37.8007 24.0009 38.0901 24.0896 38.336 24.2548C38.5819 24.4199 38.7734 24.6542 38.8864 24.9281C38.9993 25.202 39.0287 25.5031 38.9707 25.7936C38.9127 26.0842 38.7699 26.351 38.5605 26.5605L27.4395 37.6815C27.0225 38.1009 26.5265 38.4334 25.9801 38.6597C25.4338 38.8861 24.8479 39.0017 24.2565 39H13.5V42H24.2565C25.242 42.0025 26.2181 41.8095 27.1285 41.4323C28.0389 41.0551 28.8655 40.5012 29.5605 39.8025L40.6815 28.6815C41.5251 27.8376 41.999 26.6932 41.999 25.5C41.999 24.3068 41.5251 23.1624 40.6815 22.3185ZM29.379 9.879L24 15V0H21V15L15.621 9.879L13.5 12L22.5 21L31.5 12L29.379 9.879Z" fill="#0E8FE3"/>
</svg>
