<svg width="48" height="48" viewBox="0 0 48 48" fill="none" xmlns="http://www.w3.org/2000/svg">
<path d="M33 23.9996C33.0022 22.2792 32.444 20.6047 31.41 19.2296L35.4 15.2696C36.1798 15.5956 37.0149 15.7687 37.86 15.7796C38.6244 15.8037 39.386 15.6768 40.1013 15.4063C40.8167 15.1358 41.4716 14.7269 42.0289 14.2031C42.5861 13.6793 43.0346 13.0509 43.3488 12.3536C43.663 11.6564 43.8367 10.9041 43.86 10.1396C43.86 8.54835 43.2279 7.02223 42.1026 5.89701C40.9774 4.77179 39.4513 4.13965 37.86 4.13965C36.2687 4.13965 34.7426 4.77179 33.6174 5.89701C32.4921 7.02223 31.86 8.54835 31.86 10.1396C31.8638 11.0676 32.1122 11.9782 32.58 12.7796L28.59 16.7696C27.1874 15.9846 25.6073 15.5715 24 15.5696C22.0155 15.5423 20.0775 16.1717 18.4878 17.3599C16.8981 18.5482 15.7457 20.2286 15.21 22.1396H13.14C12.6869 21.0193 11.9061 20.0619 10.8997 19.3928C9.89336 18.7236 8.7084 18.374 7.5 18.3896C5.96127 18.3411 4.46596 18.9041 3.34144 19.9555C2.21691 21.007 1.55478 22.4611 1.5 23.9996C1.52328 24.7641 1.69698 25.5164 2.01117 26.2136C2.32537 26.9109 2.7739 27.5393 3.33113 28.0631C3.88835 28.5869 4.54335 28.9958 5.25867 29.2663C5.97399 29.5368 6.73562 29.6637 7.5 29.6396C8.7084 29.6553 9.89336 29.3057 10.8997 28.6365C11.9061 27.9674 12.6869 27.01 13.14 25.8896H15.21C15.7457 27.8007 16.8981 29.4811 18.4878 30.6693C20.0775 31.8576 22.0155 32.487 24 32.4596C25.1466 32.4957 26.289 32.3053 27.362 31.8996C28.435 31.4938 29.4175 30.8806 30.2533 30.0949C31.0891 29.3092 31.7619 28.3665 32.2332 27.3206C32.7045 26.2747 32.9651 25.1463 33 23.9996ZM37.86 8.27965C38.4047 8.22949 38.9471 8.39697 39.3687 8.74549C39.7903 9.09401 40.0568 9.59524 40.11 10.1396C40.0226 10.6733 39.7483 11.1585 39.3361 11.5087C38.924 11.8588 38.4008 12.051 37.86 12.051C37.3192 12.051 36.796 11.8588 36.3839 11.5087C35.9717 11.1585 35.6974 10.6733 35.61 10.1396C35.6706 9.59836 35.9391 9.10179 36.359 8.75475C36.7788 8.40771 37.317 8.23736 37.86 8.27965ZM7.5 25.8896C6.95229 25.9315 6.40998 25.757 5.98937 25.4037C5.56877 25.0504 5.30334 24.5464 5.25 23.9996C5.3106 23.4584 5.57915 22.9618 5.99895 22.6147C6.41875 22.2677 6.95697 22.0974 7.5 22.1396C8.04303 22.0974 8.58125 22.2677 9.00105 22.6147C9.42085 22.9618 9.6894 23.4584 9.75 23.9996C9.69666 24.5464 9.43123 25.0504 9.01063 25.4037C8.59002 25.757 8.04771 25.9315 7.5 25.8896ZM24 28.7096C22.6807 28.7752 21.389 28.3171 20.4058 27.435C19.4225 26.5529 18.8275 25.3183 18.75 23.9996C18.8274 22.6835 19.4235 21.4517 20.4076 20.5744C21.3918 19.6971 22.6837 19.2459 24 19.3196C25.3144 19.2539 26.6019 19.7079 27.5842 20.5836C28.5666 21.4593 29.165 22.6864 29.25 23.9996C29.1649 25.3154 28.5676 26.5455 27.5862 27.426C26.6047 28.3065 25.3173 28.7673 24 28.7096Z" fill="#0E8FE3"/>
<path d="M7.5 13.1396C8.3468 13.1451 9.18518 12.9713 9.96 12.6296L15.24 17.9996C16.0032 16.9775 16.9369 16.0946 18 15.3896L12.78 10.1396C13.2478 9.33818 13.4962 8.4276 13.5 7.49962C13.4452 5.96109 12.7831 4.50695 11.6586 3.45552C10.534 2.40409 9.03873 1.84103 7.5 1.88962C5.96127 1.84103 4.46596 2.40409 3.34144 3.45552C2.21691 4.50695 1.55478 5.96109 1.5 7.49962C1.52328 8.26403 1.69698 9.01635 2.01117 9.71359C2.32537 10.4108 2.7739 11.0393 3.33113 11.5631C3.88835 12.0869 4.54335 12.4957 5.25867 12.7662C5.97399 13.0368 6.73562 13.1636 7.5 13.1396ZM7.5 5.63962C8.04303 5.59733 8.58125 5.76769 9.00105 6.11472C9.42085 6.46176 9.6894 6.95833 9.75 7.49962C9.69666 8.04634 9.43123 8.55039 9.01063 8.9037C8.59002 9.25701 8.04771 9.43145 7.5 9.38962C6.95229 9.43145 6.40998 9.25701 5.98937 8.9037C5.56877 8.55039 5.30334 8.04634 5.25 7.49962C5.3106 6.95833 5.57915 6.46176 5.99895 6.11472C6.41875 5.76769 6.95697 5.59733 7.5 5.63962ZM40.5 34.8896C39.6532 34.8841 38.8148 35.0579 38.04 35.3996L32.76 29.9996C31.9801 30.9922 31.0365 31.8444 29.97 32.5196L35.19 37.7396C34.7313 38.5434 34.4933 39.4542 34.5 40.3796C34.5 41.9709 35.1321 43.497 36.2574 44.6223C37.3826 45.7475 38.9087 46.3796 40.5 46.3796C42.0913 46.3796 43.6174 45.7475 44.7426 44.6223C45.8679 43.497 46.5 41.9709 46.5 40.3796C46.4146 38.8623 45.7392 37.4386 44.618 36.4127C43.4968 35.3869 42.0189 34.8402 40.5 34.8896ZM40.5 42.3896C39.9523 42.4315 39.41 42.257 38.9894 41.9037C38.5688 41.5504 38.3033 41.0463 38.25 40.4996C38.3374 39.966 38.6117 39.4807 39.0239 39.1306C39.436 38.7805 39.9592 38.5883 40.5 38.5883C41.0408 38.5883 41.564 38.7805 41.9761 39.1306C42.3883 39.4807 42.6626 39.966 42.75 40.4996C42.6967 41.0463 42.4312 41.5504 42.0106 41.9037C41.59 42.257 41.0477 42.4315 40.5 42.3896Z" fill="#0E8FE3"/>
</svg>
