<svg width="48" height="48" viewBox="0 0 48 48" fill="none" xmlns="http://www.w3.org/2000/svg">
<path d="M23.9997 10.0004C23.9975 9.20186 23.836 8.4118 23.5245 7.67652C23.2131 6.94124 22.758 6.27552 22.186 5.71837C21.614 5.16123 20.9365 4.72388 20.1932 4.43195C19.45 4.14002 18.6559 3.99938 17.8577 4.01828C17.0594 4.03719 16.2729 4.21525 15.5443 4.54203C14.8157 4.86881 14.1596 5.33774 13.6146 5.92133C13.0696 6.50492 12.6465 7.19144 12.3703 7.94064C12.094 8.68984 11.97 9.48665 12.0057 10.2844C10.8301 10.5866 9.73866 11.1525 8.81412 11.939C7.88958 12.7255 7.15614 13.7121 6.66935 14.8241C6.18256 15.936 5.95518 17.1442 6.00444 18.357C6.0537 19.5698 6.3783 20.7556 6.95366 21.8244C5.94202 22.6462 5.14651 23.7028 4.63634 24.9022C4.12616 26.1017 3.91678 27.4076 4.02639 28.7063C4.136 30.0051 4.56129 31.2575 5.26527 32.3544C5.96925 33.4514 6.93059 34.3597 8.06566 35.0004C7.81857 36.912 8.27 38.8486 9.33692 40.454C10.4038 42.0593 12.0145 43.2255 13.8727 43.7379C15.7309 44.2504 17.7116 44.0748 19.4506 43.2433C21.1896 42.4118 22.5699 40.9804 23.3377 39.2124C23.4814 38.8596 23.5912 38.494 23.6657 38.1204C23.7217 37.8604 24.2777 37.8604 24.3357 38.1204C24.4094 38.4939 24.5186 38.8595 24.6617 39.2124C25.4294 40.9804 26.8097 42.4118 28.5487 43.2433C30.2877 44.0748 32.2685 44.2504 34.1266 43.7379C35.9848 43.2255 37.5955 42.0593 38.6624 40.454C39.7293 38.8486 40.1807 36.912 39.9337 35.0004C41.0687 34.3597 42.0301 33.4514 42.7341 32.3544C43.438 31.2575 43.8633 30.0051 43.9729 28.7063C44.0825 27.4076 43.8732 26.1017 43.363 24.9022C42.8528 23.7028 42.0573 22.6462 41.0457 21.8244C41.621 20.7556 41.9456 19.5698 41.9949 18.357C42.0441 17.1442 41.8168 15.936 41.33 14.8241C40.8432 13.7121 40.1097 12.7255 39.1852 11.939C38.2607 11.1525 37.1693 10.5866 35.9937 10.2844C36.0293 9.48665 35.9053 8.68984 35.6291 7.94064C35.3528 7.19144 34.9297 6.50492 34.3847 5.92133C33.8397 5.33774 33.1836 4.86881 32.455 4.54203C31.7265 4.21525 30.94 4.03719 30.1417 4.01828C29.3434 3.99938 28.5493 4.14002 27.8061 4.43195C27.0629 4.72388 26.3854 5.16123 25.8133 5.71837C25.2413 6.27552 24.7862 6.94124 24.4748 7.67652C24.1634 8.4118 24.0018 9.20186 23.9997 10.0004Z" stroke="#0E8FE3" stroke-width="3" stroke-linecap="round" stroke-linejoin="round"/>
<path d="M35.1971 13C35.6812 12.1612 35.955 11.2176 35.9951 10.25M12.0051 10.25C12.0447 11.2175 12.3178 12.161 12.8011 13M6.95312 21.792C7.319 21.494 7.71053 21.229 8.12312 21M39.8751 21C40.2877 21.229 40.6792 21.494 41.0451 21.792M11.9991 36C10.6208 36.0006 9.26566 35.6452 8.06512 34.968M39.9331 34.968C38.7326 35.6452 37.3775 36.0006 35.9991 36" stroke="#0E8FE3" stroke-width="2" stroke-linecap="round" stroke-linejoin="round"/>
<path d="M24 30C27.3137 30 30 27.3137 30 24C30 20.6863 27.3137 18 24 18C20.6863 18 18 20.6863 18 24C18 27.3137 20.6863 30 24 30Z" stroke="#0E8FE3" stroke-width="2" stroke-linecap="round" stroke-linejoin="round"/>
<path d="M31.3996 20.8003L29.5996 21.6003M18.3996 26.4003L16.5996 27.2003M27.1996 31.4003L26.3996 29.6003M21.5996 18.4003L20.7996 16.6003M31.3996 27.0003L29.5996 26.2003M18.3996 21.8003L16.5996 21.0003M20.9996 31.4003L21.7996 29.6003M26.1996 18.4003L26.9996 16.6003" stroke="#0E8FE3" stroke-width="3" stroke-linecap="round" stroke-linejoin="round"/>
</svg>
