<svg width="48" height="48" viewBox="0 0 48 48" fill="none" xmlns="http://www.w3.org/2000/svg">
<path d="M42.5 11C42.1022 11 41.7206 10.842 41.4393 10.5607C41.158 10.2794 41 9.89782 41 9.5C41 9.10218 41.158 8.72064 41.4393 8.43934C41.7206 8.15804 42.1022 8 42.5 8C42.8978 8 43.2794 8.15804 43.5607 8.43934C43.842 8.72064 44 9.10218 44 9.5C44 9.89782 43.842 10.2794 43.5607 10.5607C43.2794 10.842 42.8978 11 42.5 11ZM42.5 11V18.5C42.5 19.896 42.5 20.594 42.328 21.16C42.1373 21.7897 41.7942 22.3626 41.3292 22.828C40.8642 23.2933 40.2915 23.6368 39.662 23.828C39.094 24 38.396 24 37 24M5.5 37C5.89782 37 6.27936 37.158 6.56066 37.4393C6.84196 37.7206 7 38.1022 7 38.5C7 38.8978 6.84196 39.2794 6.56066 39.5607C6.27936 39.842 5.89782 40 5.5 40C5.10218 40 4.72064 39.842 4.43934 39.5607C4.15804 39.2794 4 38.8978 4 38.5C4 38.1022 4.15804 37.7206 4.43934 37.4393C4.72064 37.158 5.10218 37 5.5 37ZM5.5 37V29.5C5.5 28.104 5.5 27.406 5.672 26.84C5.8627 26.2103 6.20576 25.6374 6.6708 25.172C7.13583 24.7067 7.70848 24.3632 8.338 24.172C8.906 24 9.604 24 11 24M11 5.5C11 5.89782 10.842 6.27936 10.5607 6.56066C10.2794 6.84196 9.89782 7 9.5 7C9.10218 7 8.72064 6.84196 8.43934 6.56066C8.15804 6.27936 8 5.89782 8 5.5C8 5.10218 8.15804 4.72064 8.43934 4.43934C8.72064 4.15804 9.10218 4 9.5 4C9.89782 4 10.2794 4.15804 10.5607 4.43934C10.842 4.72064 11 5.10218 11 5.5ZM11 5.5H18.5C19.896 5.5 20.594 5.5 21.16 5.672C21.7897 5.8627 22.3626 6.20576 22.828 6.6708C23.2933 7.13583 23.6368 7.70848 23.828 8.338C24 8.906 24 9.604 24 11M37 42.5C37 42.1022 37.158 41.7206 37.4393 41.4393C37.7206 41.158 38.1022 41 38.5 41C38.8978 41 39.2794 41.158 39.5607 41.4393C39.842 41.7206 40 42.1022 40 42.5C40 42.8978 39.842 43.2794 39.5607 43.5607C39.2794 43.842 38.8978 44 38.5 44C38.1022 44 37.7206 43.842 37.4393 43.5607C37.158 43.2794 37 42.8978 37 42.5ZM37 42.5H29.5C28.104 42.5 27.406 42.5 26.84 42.328C26.2103 42.1373 25.6374 41.7942 25.172 41.3292C24.7067 40.8642 24.3632 40.2915 24.172 39.662C24 39.094 24 38.396 24 37" stroke="#0E8FE3" stroke-width="3" stroke-linecap="round" stroke-linejoin="round"/>
<path d="M11.0977 23.9023C11.0977 17.7743 11.0977 14.7103 13.0017 12.8063C14.9057 10.9023 17.9697 10.9023 24.0977 10.9023C30.2257 10.9023 33.2897 10.9023 35.1937 12.8063C37.0977 14.7103 37.0977 17.7743 37.0977 23.9023C37.0977 30.0303 37.0977 33.0943 35.1937 34.9983C33.2897 36.9023 30.2257 36.9023 24.0977 36.9023C17.9697 36.9023 14.9057 36.9023 13.0017 34.9983C11.0977 33.0943 11.0977 30.0303 11.0977 23.9023Z" stroke="#0E8FE3" stroke-width="3" stroke-linecap="round" stroke-linejoin="round"/>
<path d="M24.9978 29.0003L22.0778 19.9583C21.9765 19.673 21.7879 19.4269 21.5387 19.2549C21.2895 19.0829 20.9925 18.9938 20.6898 19.0003C20.3874 18.9943 20.0908 19.0835 19.8421 19.2555C19.5933 19.4274 19.405 19.6733 19.3038 19.9583L16.3838 29.0003M29.9978 19.0003V29.0003M17.4578 26.0003H23.9218" stroke="#0E8FE3" stroke-width="3" stroke-linecap="round" stroke-linejoin="round"/>
</svg>
