<svg width="48" height="48" viewBox="0 0 48 48" fill="none" xmlns="http://www.w3.org/2000/svg">
<path d="M43.6815 25.3185C43.2665 24.9011 42.7731 24.5697 42.2298 24.3434C41.6864 24.1172 41.1036 24.0005 40.515 24H40.5C39.9089 23.9985 39.3233 24.1142 38.7772 24.3406C38.2311 24.5669 37.7353 24.8993 37.3185 25.3185L29.967 32.67C29.886 31.5395 29.3806 30.4815 28.5521 29.7081C27.7236 28.9347 26.6334 28.5032 25.5 28.5H15C13.0116 28.5024 11.1053 29.2933 9.69933 30.6993C8.29332 32.1053 7.50238 34.0116 7.5 36V37.0005L3 42.9945L5.4 44.7945L10.5 37.9995V36C10.5012 34.8069 10.9757 33.663 11.8193 32.8193C12.663 31.9757 13.8069 31.5012 15 31.5H25.5C25.8978 31.5 26.2794 31.658 26.5607 31.9393C26.842 32.2206 27 32.6022 27 33C27 33.3978 26.842 33.7794 26.5607 34.0607C26.2794 34.342 25.8978 34.5 25.5 34.5H19.5V37.5H26.8935C27.6817 37.5023 28.4626 37.3481 29.1908 37.0463C29.9189 36.7445 30.58 36.3012 31.1355 35.742L39.4395 27.4395C39.7207 27.1582 40.1022 27.0001 40.5 27H40.5045C40.8007 27.0009 41.0901 27.0896 41.336 27.2548C41.5819 27.4199 41.7734 27.6542 41.8864 27.9281C41.9993 28.202 42.0287 28.5031 41.9707 28.7936C41.9127 29.0842 41.7699 29.351 41.5605 29.5605L30.4395 40.6815C30.0225 41.1009 29.5265 41.4334 28.9801 41.6597C28.4338 41.8861 27.8479 42.0017 27.2565 42H16.5V45H27.2565C28.242 45.0025 29.2181 44.8095 30.1285 44.4323C31.0389 44.0551 31.8655 43.5012 32.5605 42.8025L43.6815 31.6815C44.5251 30.8376 44.999 29.6932 44.999 28.5C44.999 27.3068 44.5251 26.1624 43.6815 25.3185ZM32.379 12.879L27 18V3H24V18L18.621 12.879L16.5 15L25.5 24L34.5 15L32.379 12.879Z" fill="#0E8FE3"/>
</svg>
