<svg width="188" height="189" viewBox="0 0 188 189" fill="none" xmlns="http://www.w3.org/2000/svg">
<path d="M136.451 68.5C136.451 106.332 106.049 137 68.5455 137C31.0421 137 0.639648 106.332 0.639648 68.5C0.639648 30.6685 31.0421 0 68.5455 0C106.049 0 136.451 30.6685 136.451 68.5ZM24.0852 68.5C24.0852 93.2696 43.9907 113.349 68.5455 113.349C93.1002 113.349 113.006 93.2696 113.006 68.5C113.006 43.7304 93.1002 23.6507 68.5455 23.6507C43.9907 23.6507 24.0852 43.7304 24.0852 68.5Z" fill="#CFDE00"/>
<path d="M188 154.5C188 173.554 172.688 189 153.799 189C134.911 189 119.599 173.554 119.599 154.5C119.599 135.446 134.911 120 153.799 120C172.688 120 188 135.446 188 154.5ZM131.407 154.5C131.407 166.975 141.432 177.088 153.799 177.088C166.166 177.088 176.192 166.975 176.192 154.5C176.192 142.025 166.166 131.912 153.799 131.912C141.432 131.912 131.407 142.025 131.407 154.5Z" fill="#CFDE00"/>
<path d="M188 95.5001C188 105.717 179.789 114 169.66 114C159.532 114 151.321 105.717 151.321 95.5001C151.321 85.2829 159.532 77.0001 169.66 77.0001C179.789 77.0001 188 85.2829 188 95.5001ZM157.653 95.5001C157.653 102.19 163.029 107.613 169.66 107.613C176.292 107.613 181.668 102.19 181.668 95.5001C181.668 88.8105 176.292 83.3875 169.66 83.3875C163.029 83.3875 157.653 88.8105 157.653 95.5001Z" fill="#CFDE00"/>
</svg>
