<svg width="68" height="68" viewBox="0 0 68 68" fill="none" xmlns="http://www.w3.org/2000/svg">
<path d="M20.8952 7.79102V60.2077M7.79102 20.8952H60.2077M33.9994 20.8952V60.2077M47.1035 20.8952V60.2077M20.8952 33.9994H60.2077M20.8952 47.1035H60.2077M13.4577 7.79102H54.541C56.0439 7.79102 57.4852 8.38804 58.548 9.45074C59.6107 10.5134 60.2077 11.9548 60.2077 13.4577V54.541C60.2077 56.0439 59.6107 57.4852 58.548 58.548C57.4852 59.6107 56.0439 60.2077 54.541 60.2077H13.4577C11.9548 60.2077 10.5134 59.6107 9.45074 58.548C8.38804 57.4852 7.79102 56.0439 7.79102 54.541V13.4577C7.79102 11.9548 8.38804 10.5134 9.45074 9.45074C10.5134 8.38804 11.9548 7.79102 13.4577 7.79102Z" stroke="white" stroke-width="4" stroke-linecap="round" stroke-linejoin="round"/>
</svg>
