<svg width="69" height="68" viewBox="0 0 69 68" fill="none" xmlns="http://www.w3.org/2000/svg">
<path d="M28.833 12.3823V36.834H23.1663V11.4813L23.2853 11.0847C23.6338 9.91448 24.5603 7.92548 26.2972 6.18865C28.0963 4.38098 30.8022 2.83398 34.4997 2.83398C38.2 2.83398 40.9002 4.38098 42.7022 6.18865C44.439 7.92548 45.3655 9.91448 45.714 11.0847L45.833 11.4813V18.2388H40.1663V12.3823C39.8168 11.5664 39.317 10.8234 38.693 10.1922C37.7807 9.27698 36.466 8.50065 34.4997 8.50065C32.5333 8.50065 31.2187 9.27698 30.3063 10.1922C29.6823 10.8234 29.1826 11.5664 28.833 12.3823ZM11.9803 22.6673H18.7378V28.334H12.8813C12.0654 28.6835 11.3225 29.1833 10.6912 29.8073C9.77601 30.7197 8.99967 32.0343 8.99967 34.0007C8.99967 35.967 9.77601 37.2817 10.6912 38.194C11.4732 38.976 12.3515 39.4463 12.8813 39.6673H37.333V45.334H11.9803L11.5837 45.215C10.4135 44.8665 8.42451 43.94 6.68767 42.2032C4.88001 40.404 3.33301 37.6982 3.33301 34.0007C3.33301 30.3003 4.88001 27.6001 6.68767 25.7981C8.42451 24.0613 10.4135 23.1348 11.5837 22.7863L11.9803 22.6673ZM31.6663 22.6673H57.019L57.4157 22.7863C58.5858 23.1348 60.572 24.0613 62.3145 25.7981C64.1193 27.5973 65.6663 30.3032 65.6663 34.0007C65.6663 37.701 64.1193 40.4011 62.3145 42.2032C60.5748 43.94 58.5858 44.8665 57.4157 45.215L57.019 45.334H50.2643V39.6673H56.118C56.9339 39.3178 57.6769 38.818 58.3082 38.194C59.2233 37.2817 59.9997 35.967 59.9997 34.0007C59.9997 32.0343 59.2233 30.7197 58.3082 29.8073C57.6769 29.1833 56.9339 28.6835 56.118 28.334H31.6663V22.6673ZM45.833 31.1673V56.52L45.714 56.9166C45.3655 58.0868 44.439 60.073 42.7022 61.8155C40.903 63.6203 38.1972 65.1673 34.4997 65.1673C30.7993 65.1673 28.0992 63.6203 26.2972 61.8155C24.5603 60.0758 23.6338 58.0868 23.2853 56.9166L23.1663 56.52V49.7653H28.833V55.619C29.054 56.1488 29.5243 57.0271 30.3063 57.8092C31.2187 58.7243 32.5333 59.5006 34.4997 59.5006C36.466 59.5006 37.7807 58.7243 38.693 57.8092C39.317 57.1779 39.8168 56.4349 40.1663 55.619V31.1673H45.833Z" fill="white"/>
</svg>
