<svg width="68" height="68" viewBox="0 0 68 68" fill="none" xmlns="http://www.w3.org/2000/svg">
<path d="M16.2924 58.4439L4.25 47.702L7.07838 44.5315L19.0655 55.2224L35.4068 39.4017C36.1684 38.6657 37.1853 38.2529 38.2445 38.2497C39.3036 38.2466 40.323 38.6533 41.089 39.3848L48.79 46.7457L60.6475 34.0531L63.75 36.9537L51.8904 49.6506C51.5073 50.0607 51.0467 50.3906 50.5351 50.6214C50.0236 50.8521 49.4714 50.9791 48.9105 50.9949C48.3496 51.0107 47.7911 50.9151 47.2674 50.7135C46.7437 50.5119 46.2652 50.2084 45.8596 49.8206L38.2585 42.5552L21.9683 58.3227C21.2119 59.0553 20.2064 59.4747 19.1537 59.4968C18.1009 59.5188 17.0788 59.1441 16.2924 58.4439ZM63.75 23.375H55.25L59.5 17L63.75 23.375ZM46.75 8.5H38.25V12.75H46.75V17H40.375V21.25H46.75V25.5H38.25V29.75H46.75C47.8767 29.7483 48.9567 29.3 49.7533 28.5033C50.55 27.7067 50.9983 26.6267 51 25.5V12.75C51 11.6228 50.5522 10.5418 49.7552 9.7448C48.9582 8.94777 47.8772 8.5 46.75 8.5ZM34 29.75H21.25V21.25C21.25 20.1228 21.6978 19.0418 22.4948 18.2448C23.2918 17.4478 24.3728 17 25.5 17H29.75V12.75H21.25V8.5H29.75C30.8772 8.5 31.9582 8.94777 32.7552 9.7448C33.5522 10.5418 34 11.6228 34 12.75V17C34 18.1272 33.5522 19.2082 32.7552 20.0052C31.9582 20.8022 30.8772 21.25 29.75 21.25H25.5V25.5H34V29.75ZM12.75 25.5V8.5H8.5V10.625H4.25V14.875H8.5V25.5H4.25V29.75H17V25.5H12.75Z" fill="white"/>
</svg>
