<svg width="68" height="68" viewBox="0 0 68 68" fill="none" xmlns="http://www.w3.org/2000/svg">
<path d="M35.927 16.9993H32.0737L19.8337 45.3327H25.5003L27.5687 39.666H40.432L42.5003 45.3327H48.167L35.927 16.9993ZM29.1837 35.416L34.0003 22.666L38.817 35.416H29.1837ZM49.3003 57.7994L53.8337 62.3327H39.667V48.166L45.3337 53.8327C52.1053 49.8944 56.667 42.3577 56.667 33.9994C56.667 21.5044 46.4953 11.3327 34.0003 11.3327C21.5053 11.3327 11.3337 21.5044 11.3337 33.9994C11.3337 42.3577 15.8953 49.6677 22.667 53.606V59.9527C12.6653 55.561 5.66699 45.616 5.66699 33.9994C5.66699 18.416 18.417 5.66602 34.0003 5.66602C49.5837 5.66602 62.3337 18.416 62.3337 33.9994C62.3337 44.001 57.1487 52.756 49.3003 57.7994Z" fill="white"/>
</svg>
