<svg width="32" height="32" viewBox="0 0 32 32" fill="none" xmlns="http://www.w3.org/2000/svg">
<path fill-rule="evenodd" clip-rule="evenodd" d="M6.66797 19.9951C6.93319 19.9951 7.18754 20.1005 7.37508 20.288C7.56261 20.4755 7.66797 20.7299 7.66797 20.9951V23.9991C7.66797 24.1831 7.8173 24.3325 8.0013 24.3325H24.0013C24.0897 24.3325 24.1745 24.2973 24.237 24.2348C24.2995 24.1723 24.3346 24.0875 24.3346 23.9991V20.9951C24.3346 20.7299 24.44 20.4755 24.6275 20.288C24.8151 20.1005 25.0694 19.9951 25.3346 19.9951C25.5999 19.9951 25.8542 20.1005 26.0417 20.288C26.2293 20.4755 26.3346 20.7299 26.3346 20.9951V23.9991C26.3346 24.618 26.0888 25.2114 25.6512 25.649C25.2136 26.0866 24.6201 26.3325 24.0013 26.3325H8.0013C7.38246 26.3325 6.78897 26.0866 6.35139 25.649C5.9138 25.2114 5.66797 24.618 5.66797 23.9991V20.9951C5.66797 20.7299 5.77333 20.4755 5.96086 20.288C6.1484 20.1005 6.40275 19.9951 6.66797 19.9951Z" fill="#181C2A"/>
<path fill-rule="evenodd" clip-rule="evenodd" d="M16.2715 7.43945C16.5367 7.43945 16.7911 7.54481 16.9786 7.73235C17.1661 7.91988 17.2715 8.17424 17.2715 8.43945V19.2208C17.2715 19.486 17.1661 19.7404 16.9786 19.9279C16.7911 20.1154 16.5367 20.2208 16.2715 20.2208C16.0063 20.2208 15.7519 20.1154 15.5644 19.9279C15.3768 19.7404 15.2715 19.486 15.2715 19.2208V8.44079C15.2715 8.17557 15.3768 7.92122 15.5644 7.73368C15.7519 7.54614 16.0063 7.43945 16.2715 7.43945Z" fill="#181C2A"/>
<path fill-rule="evenodd" clip-rule="evenodd" d="M15.572 5.95155C15.7588 5.76912 16.0095 5.66699 16.2706 5.66699C16.5317 5.66699 16.7825 5.76912 16.9693 5.95155L21.428 10.3062C21.6138 10.4924 21.7187 10.7442 21.7201 11.0072C21.7216 11.2702 21.6193 11.5232 21.4355 11.7113C21.2518 11.8995 21.0013 12.0077 20.7383 12.0125C20.4754 12.0172 20.2211 11.9182 20.0306 11.7369L16.2706 8.06488L12.5106 11.7369C12.4171 11.8306 12.3059 11.9048 12.1835 11.9552C12.061 12.0056 11.9298 12.0312 11.7974 12.0305C11.665 12.0297 11.5341 12.0027 11.4122 11.951C11.2903 11.8993 11.1799 11.8239 11.0874 11.7292C10.9949 11.6345 10.9221 11.5223 10.8733 11.3993C10.8245 11.2762 10.8006 11.1447 10.803 11.0123C10.8054 10.8799 10.8341 10.7493 10.8873 10.6281C10.9406 10.5069 11.0174 10.3975 11.1133 10.3062L15.572 5.95155Z" fill="#181C2A"/>
</svg>
