<svg width="34" height="34" viewBox="0 0 34 34" fill="none" xmlns="http://www.w3.org/2000/svg">
<path fill-rule="evenodd" clip-rule="evenodd" d="M15.5051 1.77075H18.4943C20.4308 1.77075 21.9934 1.77075 23.2217 1.9365C24.4967 2.1065 25.5705 2.47484 26.4233 3.32625C26.8455 3.74984 27.1487 4.22725 27.3683 4.75709C28.6886 4.92142 29.7978 5.28409 30.6733 6.15959C31.5262 7.01242 31.8917 8.08625 32.0645 9.36125C32.2288 10.5895 32.2288 12.1521 32.2288 14.0887V19.9112C32.2288 21.8478 32.2288 23.4103 32.0645 24.6386C31.8917 25.9136 31.5262 26.9874 30.6733 27.8403C29.7978 28.7158 28.69 29.0784 27.3683 29.2442C27.1487 29.7726 26.8455 30.25 26.4233 30.6736C25.5705 31.5264 24.4967 31.8919 23.2217 32.0648C21.9934 32.2291 20.4308 32.2291 18.4943 32.2291H15.5051C13.5685 32.2291 12.0059 32.2291 10.7777 32.0648C9.50267 31.8919 8.42884 31.5264 7.57601 30.6736C7.17024 30.2638 6.84915 29.7781 6.63109 29.2442C5.31076 29.0784 4.20151 28.7158 3.32601 27.8403C2.47317 26.9874 2.10767 25.9136 1.93626 24.6386C1.77051 23.4103 1.77051 21.8478 1.77051 19.9112V14.0887C1.77051 12.1521 1.77051 10.5895 1.93626 9.36125C2.10626 8.08625 2.47459 7.01242 3.32601 6.15959C4.20151 5.28409 5.30934 4.92142 6.63109 4.75709C6.84899 4.22269 7.17008 3.73648 7.57601 3.32625C8.42884 2.47342 9.50267 2.10792 10.7777 1.9365C12.0059 1.77075 13.5685 1.77075 15.5051 1.77075ZM6.13101 6.99825C5.51192 7.14842 5.12517 7.36659 4.82909 7.66409C4.43667 8.05509 4.18167 8.60475 4.04142 9.64459C3.89834 10.7156 3.89551 12.1337 3.89551 14.1666V19.8333C3.89551 21.8662 3.89834 23.2857 4.04142 24.3553C4.18167 25.3951 4.43809 25.9448 4.82909 26.3372C5.12517 26.6333 5.51192 26.8514 6.13242 27.0016C6.02051 25.8513 6.02051 24.4431 6.02051 22.7445V11.2553C6.02051 9.55817 6.02051 8.14859 6.13101 6.99825ZM27.8683 27.0016C28.4874 26.8514 28.8742 26.6333 29.1703 26.3372C29.5627 25.9448 29.8177 25.3951 29.9579 24.3538C30.101 23.2857 30.1038 21.8676 30.1038 19.8347V14.168C30.1038 12.1337 30.101 10.7156 29.9579 9.64459C29.8177 8.60475 29.5613 8.05509 29.1703 7.66267C28.8742 7.36659 28.4874 7.14842 27.8669 6.99825C27.9788 8.14859 27.9788 9.55817 27.9788 11.2553V22.7445C27.9788 24.4417 27.9788 25.8513 27.8683 27.0016ZM11.061 4.04167C10.0212 4.18192 9.47151 4.43834 9.07909 4.82934C8.68667 5.22175 8.43167 5.77142 8.29143 6.81267C8.14834 7.87942 8.14551 9.29892 8.14551 11.3333V22.6666C8.14551 24.6995 8.14834 26.1176 8.29143 27.1886C8.43167 28.2284 8.68809 28.7781 9.07909 29.1705C9.47151 29.5629 10.0212 29.8179 11.0624 29.9582C12.1306 30.1013 13.5501 30.1041 15.583 30.1041H18.4163C20.4493 30.1041 21.8688 30.1013 22.9383 29.9582C23.9782 29.8179 24.5278 29.5615 24.9203 29.1705C25.3127 28.7781 25.5677 28.2284 25.7079 27.1872C25.851 26.1176 25.8538 24.6995 25.8538 22.6666V11.3333C25.8538 9.30034 25.851 7.88084 25.7079 6.81125C25.5677 5.77142 25.3113 5.22175 24.9203 4.82934C24.5278 4.43692 23.9782 4.18192 22.9369 4.04167C21.8688 3.89859 20.4493 3.89575 18.4163 3.89575H15.583C13.5501 3.89575 12.1306 3.89859 11.061 4.04167ZM11.6872 12.7499C11.6872 12.4681 11.7991 12.1979 11.9984 11.9986C12.1976 11.7994 12.4679 11.6874 12.7497 11.6874H21.2497C21.5315 11.6874 21.8017 11.7994 22.001 11.9986C22.2002 12.1979 22.3122 12.4681 22.3122 12.7499C22.3122 13.0317 22.2002 13.302 22.001 13.5012C21.8017 13.7005 21.5315 13.8124 21.2497 13.8124H12.7497C12.4679 13.8124 12.1976 13.7005 11.9984 13.5012C11.7991 13.302 11.6872 13.0317 11.6872 12.7499ZM11.6872 18.4166C11.6872 18.1348 11.7991 17.8645 11.9984 17.6653C12.1976 17.466 12.4679 17.3541 12.7497 17.3541H21.2497C21.5315 17.3541 21.8017 17.466 22.001 17.6653C22.2002 17.8645 22.3122 18.1348 22.3122 18.4166C22.3122 18.6984 22.2002 18.9686 22.001 19.1679C21.8017 19.3671 21.5315 19.4791 21.2497 19.4791H12.7497C12.4679 19.4791 12.1976 19.3671 11.9984 19.1679C11.7991 18.9686 11.6872 18.6984 11.6872 18.4166ZM11.6872 24.0833C11.6872 23.8015 11.7991 23.5312 11.9984 23.332C12.1976 23.1327 12.4679 23.0208 12.7497 23.0208H16.9997C17.2815 23.0208 17.5517 23.1327 17.751 23.332C17.9502 23.5312 18.0622 23.8015 18.0622 24.0833C18.0622 24.365 17.9502 24.6353 17.751 24.8346C17.5517 25.0338 17.2815 25.1458 16.9997 25.1458H12.7497C12.4679 25.1458 12.1976 25.0338 11.9984 24.8346C11.7991 24.6353 11.6872 24.365 11.6872 24.0833Z" fill="#0E8FE3"/>
</svg>
