<svg width="32" height="32" viewBox="0 0 32 32" fill="none" xmlns="http://www.w3.org/2000/svg">
<path d="M24 25.147H22.9867C21.92 25.147 20.9067 25.5603 20.16 26.307L17.88 28.5604C16.84 29.5871 15.1467 29.5871 14.1067 28.5604L11.8267 26.307C11.08 25.5603 10.0533 25.147 9 25.147H8C5.78667 25.147 4 23.3737 4 21.187V6.64032C4 4.45365 5.78667 2.68036 8 2.68036H24C26.2133 2.68036 28 4.45365 28 6.64032V21.187C28 23.3604 26.2133 25.147 24 25.147Z" stroke="#B4E1FF" stroke-width="2" stroke-miterlimit="10" stroke-linecap="round" stroke-linejoin="round"/>
<path d="M9.33301 12.2132C9.33301 10.9732 10.3463 9.95978 11.5863 9.95978C12.8263 9.95978 13.8397 10.9732 13.8397 12.2132C13.8397 14.7199 10.2797 14.9865 9.493 17.3732C9.333 17.8665 9.74634 18.3598 10.2663 18.3598H13.8397" stroke="#B4E1FF" stroke-width="2" stroke-linecap="round" stroke-linejoin="round"/>
<path d="M21.3863 18.3465V10.7332C21.3863 10.3865 21.1597 10.0798 20.8263 9.98646C20.493 9.89313 20.133 10.0265 19.9464 10.3198C18.9864 11.8665 17.9464 13.6265 17.0397 15.1732C16.893 15.4265 16.893 15.7598 17.0397 16.0132C17.1864 16.2665 17.4664 16.4264 17.773 16.4264H22.6664" stroke="#B4E1FF" stroke-width="2" stroke-linecap="round" stroke-linejoin="round"/>
</svg>
