<svg width="32" height="32" viewBox="0 0 32 32" fill="none" xmlns="http://www.w3.org/2000/svg">
<path d="M29.2932 24.4401C29.2932 24.9201 29.1865 25.4135 28.9598 25.8935C28.7332 26.3735 28.4398 26.8268 28.0532 27.2535C27.3998 27.9735 26.6798 28.4935 25.8665 28.8268C25.0665 29.1601 24.1998 29.3335 23.2665 29.3335C21.9065 29.3335 20.4532 29.0135 18.9198 28.3601C17.3865 27.7068 15.8532 26.8268 14.3332 25.7201C12.7998 24.6001 11.3465 23.3601 9.95984 21.9868C8.5865 20.6001 7.3465 19.1468 6.23984 17.6268C5.1465 16.1068 4.2665 14.5868 3.6265 13.0801C2.9865 11.5601 2.6665 10.1068 2.6665 8.72014C2.6665 7.81348 2.8265 6.94681 3.1465 6.14681C3.4665 5.33348 3.97317 4.58681 4.67984 3.92014C5.53317 3.08014 6.4665 2.66681 7.45317 2.66681C7.8265 2.66681 8.19984 2.74681 8.53317 2.90681C8.87984 3.06681 9.1865 3.30681 9.4265 3.65348L12.5198 8.01348C12.7598 8.34681 12.9332 8.65348 13.0532 8.94681C13.1732 9.22681 13.2398 9.50681 13.2398 9.76014C13.2398 10.0801 13.1465 10.4001 12.9598 10.7068C12.7865 11.0135 12.5332 11.3335 12.2132 11.6535L11.1998 12.7068C11.0532 12.8535 10.9865 13.0268 10.9865 13.2401C10.9865 13.3468 10.9998 13.4401 11.0265 13.5468C11.0665 13.6535 11.1065 13.7335 11.1332 13.8135C11.3732 14.2535 11.7865 14.8268 12.3732 15.5201C12.9732 16.2135 13.6132 16.9201 14.3065 17.6268C15.0265 18.3335 15.7198 18.9868 16.4265 19.5868C17.1198 20.1735 17.6932 20.5735 18.1465 20.8135C18.2132 20.8401 18.2932 20.8801 18.3865 20.9201C18.4932 20.9601 18.5998 20.9735 18.7198 20.9735C18.9465 20.9735 19.1198 20.8935 19.2665 20.7468L20.2798 19.7468C20.6132 19.4135 20.9332 19.1601 21.2398 19.0001C21.5465 18.8135 21.8532 18.7201 22.1865 18.7201C22.4398 18.7201 22.7065 18.7735 22.9998 18.8935C23.2932 19.0135 23.5998 19.1868 23.9332 19.4135L28.3465 22.5468C28.6932 22.7868 28.9332 23.0668 29.0798 23.4001C29.2132 23.7335 29.2932 24.0668 29.2932 24.4401Z" stroke="#B4E1FF" stroke-width="2" stroke-miterlimit="10"/>
<path d="M21.6006 10.3999H28.0006M21.6006 10.3999V3.99988V10.3999Z" stroke="#B4E1FF" stroke-width="2" stroke-linecap="round" stroke-linejoin="round"/>
</svg>
