<svg width="30" height="30" viewBox="0 0 30 30" fill="none" xmlns="http://www.w3.org/2000/svg">
<path d="M28.2937 23.44C28.2937 23.92 28.187 24.4134 27.9603 24.8934C27.7337 25.3734 27.4403 25.8267 27.0537 26.2534C26.4003 26.9734 25.6803 27.4934 24.867 27.8267C24.067 28.16 23.2003 28.3334 22.267 28.3334C20.907 28.3334 19.4537 28.0134 17.9203 27.36C16.387 26.7067 14.8537 25.8267 13.3337 24.72C11.8003 23.6 10.347 22.36 8.96033 20.9867C7.58699 19.6 6.34699 18.1467 5.24033 16.6267C4.14699 15.1067 3.26699 13.5867 2.62699 12.08C1.98699 10.56 1.66699 9.10669 1.66699 7.72002C1.66699 6.81335 1.82699 5.94669 2.14699 5.14669C2.46699 4.33335 2.97366 3.58669 3.68033 2.92002C4.53366 2.08002 5.46699 1.66669 6.45366 1.66669C6.82699 1.66669 7.20033 1.74669 7.53366 1.90669C7.88033 2.06669 8.18699 2.30669 8.42699 2.65335L11.5203 7.01335C11.7603 7.34669 11.9337 7.65335 12.0537 7.94669C12.1737 8.22669 12.2403 8.50669 12.2403 8.76002C12.2403 9.08002 12.147 9.40002 11.9603 9.70669C11.787 10.0134 11.5337 10.3334 11.2137 10.6534L10.2003 11.7067C10.0537 11.8534 9.98699 12.0267 9.98699 12.24C9.98699 12.3467 10.0003 12.44 10.027 12.5467C10.067 12.6534 10.107 12.7334 10.1337 12.8134C10.3737 13.2534 10.787 13.8267 11.3737 14.52C11.9737 15.2134 12.6137 15.92 13.307 16.6267C14.027 17.3334 14.7203 17.9867 15.427 18.5867C16.1203 19.1734 16.6937 19.5734 17.147 19.8134C17.2137 19.84 17.2937 19.88 17.387 19.92C17.4937 19.96 17.6003 19.9734 17.7203 19.9734C17.947 19.9734 18.1203 19.8934 18.267 19.7467L19.2803 18.7467C19.6137 18.4134 19.9337 18.16 20.2403 18C20.547 17.8134 20.8537 17.72 21.187 17.72C21.4403 17.72 21.707 17.7734 22.0003 17.8934C22.2937 18.0134 22.6003 18.1867 22.9337 18.4134L27.347 21.5467C27.6937 21.7867 27.9337 22.0667 28.0803 22.4C28.2137 22.7334 28.2937 23.0667 28.2937 23.44Z" stroke="#B4E1FF" stroke-width="2" stroke-miterlimit="10"/>
<path d="M23.6667 11C23.6667 10.2 23.04 8.97337 22.1067 7.97337C21.2533 7.05337 20.12 6.33337 19 6.33337" stroke="#B4E1FF" stroke-width="2" stroke-linecap="round" stroke-linejoin="round"/>
<path d="M28.3333 11C28.3333 5.84002 24.16 1.66669 19 1.66669" stroke="#B4E1FF" stroke-width="2" stroke-linecap="round" stroke-linejoin="round"/>
</svg>
