<svg width="32" height="32" viewBox="0 0 32 32" fill="none" xmlns="http://www.w3.org/2000/svg">
<path d="M16.0003 27.3335H9.33366C5.33366 27.3335 2.66699 25.3335 2.66699 20.6668V11.3335C2.66699 6.66681 5.33366 4.66681 9.33366 4.66681H22.667C26.667 4.66681 29.3337 6.66681 29.3337 11.3335V15.3335" stroke="#B4E1FF" stroke-width="2" stroke-miterlimit="10" stroke-linecap="round" stroke-linejoin="round"/>
<path d="M22.6663 12L18.493 15.3333C17.1197 16.4267 14.8663 16.4267 13.493 15.3333L9.33301 12" stroke="#B4E1FF" stroke-width="2" stroke-miterlimit="10" stroke-linecap="round" stroke-linejoin="round"/>
<path d="M25.613 19.6935L20.8931 24.4135C20.7064 24.6001 20.5331 24.9468 20.4931 25.2001L20.2397 27.0001C20.1464 27.6535 20.5997 28.1068 21.2531 28.0135L23.0531 27.7601C23.3064 27.7201 23.6664 27.5468 23.8397 27.3601L28.5597 22.6402C29.3731 21.8268 29.7597 20.8802 28.5597 19.6802C27.3731 18.4935 26.4264 18.8801 25.613 19.6935Z" stroke="#B4E1FF" stroke-width="2" stroke-miterlimit="10" stroke-linecap="round" stroke-linejoin="round"/>
<path d="M24.9326 20.3737C25.3326 21.8137 26.4526 22.9337 27.8926 23.3337" stroke="#B4E1FF" stroke-width="2" stroke-miterlimit="10" stroke-linecap="round" stroke-linejoin="round"/>
</svg>
