<svg width="24" height="24" viewBox="0 0 24 24" fill="none" xmlns="http://www.w3.org/2000/svg">
<path d="M8.8 20.1571V16.0571L10.7 16.2571C11.2531 16.2263 11.7766 15.997 12.1742 15.6112C12.5717 15.2254 12.8167 14.709 12.864 14.1571V8.45706C12.8706 7.0164 12.3047 5.63212 11.2907 4.60873C10.2767 3.58535 8.89766 3.00669 7.457 3.00006C6.01634 2.99343 4.63206 3.55937 3.60867 4.57338C2.58529 5.58739 2.00663 6.9664 2 8.40706C2 11.2071 2.656 11.4611 3 12.9571C3.2313 13.8607 3.24125 14.8068 3.029 15.7151L2 20.1571M19.8 17.9571C21.2058 16.5511 21.9958 14.6444 21.9964 12.6562C21.997 10.6679 21.208 8.76083 19.803 7.35406M17 15.1571C17.3272 14.83 17.5863 14.4412 17.7622 14.0134C17.9382 13.5855 18.0277 13.127 18.0253 12.6643C18.023 12.2017 17.929 11.7441 17.7487 11.318C17.5684 10.892 17.3054 10.5059 16.975 10.1821" stroke="#0E8FE3" stroke-width="2" stroke-linecap="round" stroke-linejoin="round"/>
</svg>
