<svg width="24" height="24" viewBox="0 0 24 24" fill="none" xmlns="http://www.w3.org/2000/svg">
<g clip-path="url(#clip0_3308_6367)">
<path d="M1.6368 2.82001V15.7728H22.3632V2.82001H1.6368ZM22.908 1.20001C23.5104 1.20001 23.9988 1.68361 23.9988 2.28001V16.3128C23.9988 16.9092 23.5104 17.3928 22.9068 17.3928L12.6708 17.3916V21.18H16.7952C17.2476 21.18 17.6136 21.5436 17.6136 21.99C17.612 22.2058 17.525 22.4122 17.3716 22.564C17.2183 22.7158 17.011 22.8007 16.7952 22.8H7.1772C6.9614 22.8007 6.75414 22.7158 6.60076 22.564C6.44739 22.4122 6.36038 22.2058 6.3588 21.99C6.3588 21.5436 6.726 21.1812 7.1772 21.1812L11.0364 21.18V17.3916H1.0908C0.803298 17.3932 0.526922 17.2806 0.32239 17.0786C0.117859 16.8765 0.00190379 16.6015 0 16.314L0 2.28001C0 1.68361 0.4884 1.20001 1.092 1.20001H22.908Z" fill="#0E8FE3"/>
</g>
<defs>
<clipPath id="clip0_3308_6367">
<rect width="24" height="24" fill="white"/>
</clipPath>
</defs>
</svg>
