<svg width="286" height="285" viewBox="0 0 286 285" fill="none" xmlns="http://www.w3.org/2000/svg">
<ellipse opacity="0.05" cx="143" cy="142.5" rx="143" ry="142.5" fill="#0E8FE3"/>
<ellipse opacity="0.1" cx="143" cy="142.5" rx="95" ry="94.5" fill="#0E8FE3"/>
<rect x="80" y="80" width="126" height="125" rx="62.5" fill="#0E8FE3"/>
<path d="M96.964 133.912C98.628 133.912 100.116 134.288 101.428 135.04C102.756 135.776 103.796 136.808 104.548 138.136C105.3 139.448 105.676 140.936 105.676 142.6C105.676 144.264 105.3 145.76 104.548 147.088C103.796 148.4 102.756 149.432 101.428 150.184C100.116 150.92 98.628 151.288 96.964 151.288C95.476 151.288 94.132 151.032 92.932 150.52C91.748 150.008 90.756 149.264 89.956 148.288L92.428 145.984C93.612 147.312 95.06 147.976 96.772 147.976C98.004 147.976 99.044 147.616 99.892 146.896C100.756 146.176 101.316 145.208 101.572 143.992H94.756V141.016H101.524C101.252 139.864 100.692 138.944 99.844 138.256C98.996 137.568 97.972 137.224 96.772 137.224C95.06 137.224 93.612 137.888 92.428 139.216L89.956 136.912C90.756 135.936 91.748 135.192 92.932 134.68C94.132 134.168 95.476 133.912 96.964 133.912ZM121.326 137.368H115.95V151H112.11V137.368H106.758V134.2H121.326V137.368ZM131.549 151.288C129.805 151.288 128.229 150.912 126.821 150.16C125.429 149.408 124.333 148.376 123.533 147.064C122.749 145.736 122.357 144.248 122.357 142.6C122.357 140.952 122.749 139.472 123.533 138.16C124.333 136.832 125.429 135.792 126.821 135.04C128.229 134.288 129.805 133.912 131.549 133.912C133.293 133.912 134.861 134.288 136.253 135.04C137.645 135.792 138.741 136.832 139.541 138.16C140.341 139.472 140.741 140.952 140.741 142.6C140.741 144.248 140.341 145.736 139.541 147.064C138.741 148.376 137.645 149.408 136.253 150.16C134.861 150.912 133.293 151.288 131.549 151.288ZM131.549 147.976C132.541 147.976 133.437 147.752 134.237 147.304C135.037 146.84 135.661 146.2 136.109 145.384C136.573 144.568 136.805 143.64 136.805 142.6C136.805 141.56 136.573 140.632 136.109 139.816C135.661 139 135.037 138.368 134.237 137.92C133.437 137.456 132.541 137.224 131.549 137.224C130.557 137.224 129.661 137.456 128.861 137.92C128.061 138.368 127.429 139 126.965 139.816C126.517 140.632 126.293 141.56 126.293 142.6C126.293 143.64 126.517 144.568 126.965 145.384C127.429 146.2 128.061 146.84 128.861 147.304C129.661 147.752 130.557 147.976 131.549 147.976ZM165.821 151L165.797 140.944L160.853 149.224H159.125L154.181 141.136V151H150.533V134.2H153.749L160.037 144.64L166.229 134.2H169.445L169.469 151H165.821ZM181.779 139.72C183.827 139.72 185.395 140.176 186.483 141.088C187.587 142 188.139 143.352 188.139 145.144C188.139 147.048 187.531 148.504 186.315 149.512C185.115 150.504 183.419 151 181.227 151H173.643V134.2H177.507V139.72H181.779ZM181.011 148.12C182.019 148.12 182.803 147.872 183.363 147.376C183.939 146.88 184.227 146.16 184.227 145.216C184.227 143.472 183.155 142.6 181.011 142.6H177.507V148.12H181.011ZM190.275 134.2H194.139V151H190.275V134.2Z" fill="white"/>
</svg>
