<svg width="34" height="34" viewBox="0 0 34 34" fill="none" xmlns="http://www.w3.org/2000/svg">
<path d="M11.0387 30.1042H22.9613C24.2764 30.1042 25.5375 29.5818 26.4674 28.6519C27.3973 27.722 27.9197 26.4609 27.9197 25.1458V17.3117C27.9201 15.9968 27.3983 14.7356 26.469 13.8054L18.0129 5.34792C17.5524 4.8875 17.0058 4.5223 16.4042 4.27315C15.8026 4.024 15.1578 3.89579 14.5067 3.89583H11.0387C9.72362 3.89583 8.46245 4.41823 7.53258 5.34809C6.60272 6.27796 6.08032 7.53913 6.08032 8.85417V25.1458C6.08032 26.4609 6.60272 27.722 7.53258 28.6519C8.46245 29.5818 9.72362 30.1042 11.0387 30.1042Z" stroke="#0E8FE3" stroke-width="1.5" stroke-linecap="round" stroke-linejoin="round"/>
<path fill-rule="evenodd" clip-rule="evenodd" d="M14.7858 10.1164C14.4472 10.2269 14.2304 10.4507 14.1681 10.6987C14.0406 11.1973 14.1681 11.7328 14.5265 12.4029C14.705 12.7344 14.9232 13.0702 15.164 13.43L15.2944 13.6241L15.4998 13.9287L15.5267 13.8323L15.6485 13.3988C15.7883 12.9238 15.8969 12.4421 15.9744 11.9538C16.1004 11.0443 15.9588 10.5117 15.5366 10.1688C15.4233 10.0767 15.1428 10.0002 14.7858 10.1164ZM14.8637 15.9984L14.4812 15.4856L14.4359 15.4176C14.2729 15.1484 14.0916 14.8792 13.8947 14.5888L13.753 14.3777C13.4923 13.9988 13.2503 13.6073 13.0277 13.2047C12.5885 12.3859 12.2372 11.3829 12.5205 10.2765C12.7614 9.33583 13.5094 8.74508 14.2588 8.5C14.9912 8.262 15.9219 8.29175 16.6104 8.84992C17.7324 9.76225 17.8118 11.0783 17.6574 12.189C17.5713 12.751 17.4478 13.3066 17.2876 13.8522L17.1516 14.3338C17.0458 14.6946 16.9476 15.0577 16.8569 15.4232L16.762 15.6981L18.734 18.3387C19.6549 18.2282 20.6664 18.1617 21.6099 18.2297C22.6993 18.3062 23.8694 18.5725 24.667 19.329C24.9236 19.5953 25.1094 19.9217 25.2071 20.2784C25.3049 20.635 25.3116 21.0105 25.2266 21.3704C25.0609 22.0504 24.5834 22.6171 23.9247 22.9613C22.5293 23.6909 21.2302 23.1101 20.2654 22.372C19.5104 21.7954 18.785 20.9907 18.1744 20.3136L18.0271 20.1521C17.5029 20.2328 17.0071 20.3235 16.6048 20.4C16.1727 20.4807 15.6358 20.5813 15.0521 20.7117L14.8382 21.3392C14.7201 21.6112 14.6077 21.8851 14.501 22.1609L14.3282 22.5902C14.1538 23.0321 13.9517 23.4627 13.7233 23.8793C13.2558 24.6982 12.5092 25.568 11.2569 25.6374C9.57952 25.7309 8.44336 24.242 8.76919 22.6511L8.77769 22.6128C9.06102 21.4922 10.0442 20.757 10.9948 20.2711C11.8405 19.8376 12.8279 19.5174 13.7445 19.278L14.8637 15.9984ZM16.0962 17.6488L15.6896 18.8431L16.286 18.7297L16.2917 18.7283L16.83 18.6292L16.0962 17.6488ZM20.1195 19.9212C20.5077 20.332 20.8944 20.7145 21.2968 21.0219C22.0759 21.6169 22.6284 21.7203 23.137 21.454C23.4204 21.3052 23.5394 21.1126 23.5748 20.9695C23.5919 20.8928 23.5906 20.8131 23.5709 20.737C23.5512 20.6608 23.5137 20.5905 23.4614 20.5317C23.0974 20.2087 22.4386 19.9934 21.4894 19.9254C21.0333 19.8964 20.5758 19.895 20.1195 19.9212ZM13.0291 21.2627C12.5786 21.4172 12.1508 21.5886 11.7683 21.7841C10.9367 22.2091 10.5358 22.6397 10.4309 23.0123C10.3204 23.6002 10.7029 23.9657 11.1619 23.9402C11.5444 23.919 11.8788 23.6796 12.2471 23.035C12.4398 22.6837 12.6088 22.3215 12.7543 21.9484L12.9059 21.5716L13.0291 21.2627Z" fill="#0E8FE3"/>
</svg>
