<svg width="206" height="29" viewBox="0 0 206 29" fill="none" xmlns="http://www.w3.org/2000/svg">
<path d="M70.1021 7.8412L63.04 24.0827H58.0311L51 7.8412H56.0089L60.6444 18.8903L65.4355 7.8412H70.1021Z" fill="#181C2B"/>
<path d="M79.5912 24.3242C77.8283 24.3242 76.2416 23.972 74.8313 23.2676C73.4416 22.5431 72.3527 21.5469 71.5646 20.2789C70.7765 19.011 70.3824 17.572 70.3824 15.962C70.3824 14.3519 70.7765 12.9129 71.5646 11.645C72.3527 10.377 73.4416 9.39088 74.8313 8.68648C76.2416 7.96195 77.8283 7.59969 79.5912 7.59969C81.3542 7.59969 82.9305 7.96195 84.3201 8.68648C85.7097 9.39088 86.7986 10.377 87.5868 11.645C88.3749 12.9129 88.769 14.3519 88.769 15.962C88.769 17.572 88.3749 19.011 87.5868 20.2789C86.7986 21.5469 85.7097 22.5431 84.3201 23.2676C82.9305 23.972 81.3542 24.3242 79.5912 24.3242ZM79.5912 20.4601C80.8357 20.4601 81.852 20.0576 82.6401 19.2525C83.449 18.4274 83.8534 17.3305 83.8534 15.962C83.8534 14.5934 83.449 13.5066 82.6401 12.7016C81.852 11.8764 80.8357 11.4638 79.5912 11.4638C78.3468 11.4638 77.3201 11.8764 76.5112 12.7016C75.7024 13.5066 75.2979 14.5934 75.2979 15.962C75.2979 17.3305 75.7024 18.4274 76.5112 19.2525C77.3201 20.0576 78.3468 20.4601 79.5912 20.4601Z" fill="#181C2B"/>
<path d="M92.013 7.8412H96.8663V24.0827H92.013V7.8412ZM94.4397 5.57705C93.5478 5.57705 92.8219 5.32548 92.2619 4.82233C91.7019 4.31919 91.4219 3.69529 91.4219 2.95063C91.4219 2.20598 91.7019 1.58208 92.2619 1.07894C92.8219 0.575791 93.5478 0.324219 94.4397 0.324219C95.3315 0.324219 96.0574 0.565729 96.6174 1.04875C97.1774 1.53177 97.4574 2.13554 97.4574 2.86007C97.4574 3.64497 97.1774 4.29906 96.6174 4.82233C96.0574 5.32548 95.3315 5.57705 94.4397 5.57705Z" fill="#181C2B"/>
<path d="M109.459 24.3242C107.676 24.3242 106.068 23.972 104.637 23.2676C103.227 22.5431 102.117 21.5469 101.308 20.2789C100.52 19.011 100.126 17.572 100.126 15.962C100.126 14.3519 100.52 12.9129 101.308 11.645C102.117 10.377 103.227 9.39088 104.637 8.68648C106.068 7.96195 107.676 7.59969 109.459 7.59969C111.222 7.59969 112.757 7.96195 114.064 8.68648C115.391 9.39088 116.356 10.4072 116.957 11.7355L113.193 13.6978C112.322 12.2085 111.067 11.4638 109.428 11.4638C108.163 11.4638 107.116 11.8664 106.286 12.6714C105.457 13.4764 105.042 14.5733 105.042 15.962C105.042 17.3506 105.457 18.4475 106.286 19.2525C107.116 20.0576 108.163 20.4601 109.428 20.4601C111.088 20.4601 112.342 19.7154 113.193 18.2261L116.957 20.2186C116.356 21.5066 115.391 22.5129 114.064 23.2374C112.757 23.962 111.222 24.3242 109.459 24.3242Z" fill="#181C2B"/>
<path d="M135.934 16.0223C135.934 16.0827 135.903 16.5054 135.841 17.2903H123.179C123.407 18.2965 123.946 19.0915 124.797 19.6752C125.647 20.2588 126.705 20.5506 127.97 20.5506C128.841 20.5506 129.609 20.4299 130.272 20.1884C130.957 19.9267 131.589 19.5242 132.17 18.9808L134.752 21.6978C133.176 23.4487 130.874 24.3242 127.846 24.3242C125.958 24.3242 124.289 23.972 122.837 23.2676C121.385 22.5431 120.265 21.5469 119.477 20.2789C118.689 19.011 118.295 17.572 118.295 15.962C118.295 14.372 118.678 12.9431 119.446 11.6752C120.234 10.3871 121.302 9.39088 122.65 8.68648C124.019 7.96195 125.543 7.59969 127.223 7.59969C128.862 7.59969 130.345 7.94183 131.672 8.62611C133 9.31038 134.037 10.2965 134.783 11.5846C135.551 12.8525 135.934 14.3318 135.934 16.0223ZM127.254 11.162C126.155 11.162 125.232 11.4638 124.486 12.0676C123.739 12.6714 123.283 13.4965 123.117 14.5431H131.361C131.195 13.5167 130.739 12.7016 129.992 12.0978C129.246 11.4739 128.333 11.162 127.254 11.162Z" fill="#181C2B"/>
<path d="M147.254 24.3242C145.471 24.3242 143.863 23.972 142.432 23.2676C141.022 22.5431 139.912 21.5469 139.103 20.2789C138.315 19.011 137.921 17.572 137.921 15.962C137.921 14.3519 138.315 12.9129 139.103 11.645C139.912 10.377 141.022 9.39088 142.432 8.68648C143.863 7.96195 145.471 7.59969 147.254 7.59969C149.017 7.59969 150.552 7.96195 151.859 8.68648C153.186 9.39088 154.151 10.4072 154.752 11.7355L150.988 13.6978C150.117 12.2085 148.862 11.4638 147.223 11.4638C145.958 11.4638 144.911 11.8664 144.081 12.6714C143.252 13.4764 142.837 14.5733 142.837 15.962C142.837 17.3506 143.252 18.4475 144.081 19.2525C144.911 20.0576 145.958 20.4601 147.223 20.4601C148.883 20.4601 150.137 19.7154 150.988 18.2261L154.752 20.2186C154.151 21.5066 153.186 22.5129 151.859 23.2374C150.552 23.962 149.017 24.3242 147.254 24.3242Z" fill="#181C2B"/>
<path d="M165.298 24.3242C163.535 24.3242 161.949 23.972 160.538 23.2676C159.149 22.5431 158.06 21.5469 157.272 20.2789C156.484 19.011 156.089 17.572 156.089 15.962C156.089 14.3519 156.484 12.9129 157.272 11.645C158.06 10.377 159.149 9.39088 160.538 8.68648C161.949 7.96195 163.535 7.59969 165.298 7.59969C167.061 7.59969 168.638 7.96195 170.027 8.68648C171.417 9.39088 172.506 10.377 173.294 11.645C174.082 12.9129 174.476 14.3519 174.476 15.962C174.476 17.572 174.082 19.011 173.294 20.2789C172.506 21.5469 171.417 22.5431 170.027 23.2676C168.638 23.972 167.061 24.3242 165.298 24.3242ZM165.298 20.4601C166.543 20.4601 167.559 20.0576 168.347 19.2525C169.156 18.4274 169.561 17.3305 169.561 15.962C169.561 14.5934 169.156 13.5066 168.347 12.7016C167.559 11.8764 166.543 11.4638 165.298 11.4638C164.054 11.4638 163.027 11.8764 162.218 12.7016C161.409 13.5066 161.005 14.5934 161.005 15.962C161.005 17.3305 161.409 18.4274 162.218 19.2525C163.027 20.0576 164.054 20.4601 165.298 20.4601Z" fill="#181C2B"/>
<path d="M199.156 7.59969C201.25 7.59969 202.91 8.20347 204.133 9.41101C205.378 10.5984 206 12.3896 206 14.7846V24.0827H201.147V15.5091C201.147 14.2211 200.867 13.2651 200.307 12.6412C199.767 11.9972 198.99 11.6752 197.973 11.6752C196.833 11.6752 195.93 12.0374 195.267 12.762C194.603 13.4664 194.271 14.523 194.271 15.9318V24.0827H189.418V15.5091C189.418 12.9531 188.36 11.6752 186.245 11.6752C185.125 11.6752 184.233 12.0374 183.569 12.762C182.905 13.4664 182.573 14.523 182.573 15.9318V24.0827H177.72V7.8412H182.356V9.7129C182.978 9.02862 183.735 8.50535 184.627 8.14309C185.539 7.78082 186.535 7.59969 187.613 7.59969C188.796 7.59969 189.864 7.83114 190.818 8.29403C191.772 8.7368 192.539 9.39089 193.12 10.2563C193.805 9.41101 194.665 8.75692 195.702 8.29403C196.76 7.83114 197.911 7.59969 199.156 7.59969Z" fill="#181C2B"/>
<rect y="15.4924" width="7.73002" height="19.9774" transform="rotate(-47.9895 0 15.4924)" fill="#CFDE00"/>
<rect x="28.1855" y="2.84814" width="7.73002" height="28.2601" transform="rotate(42.096 28.1855 2.84814)" fill="#0E8FE3"/>
</svg>
