<svg width="33" height="32" viewBox="0 0 33 32" fill="none" xmlns="http://www.w3.org/2000/svg">
<path d="M9.55184 3.02283L11.449 2.4514C12.3126 2.19086 13.2415 2.25349 14.0623 2.62762C14.8831 3.00175 15.5397 3.66179 15.9096 4.48454L17.0901 7.11083C17.4082 7.81833 17.4969 8.60767 17.3435 9.3681C17.1902 10.1285 16.8027 10.8219 16.2353 11.3508L14.1724 13.2743C14.1477 13.2988 14.1269 13.3269 14.1107 13.3577C13.8947 13.7988 14.2227 14.9771 15.2501 16.7577C16.409 18.7645 17.3038 19.5577 17.7187 19.4354L20.4261 18.6068C21.1676 18.3804 21.9613 18.3917 22.6961 18.639C23.4308 18.8864 24.0697 19.3575 24.5233 19.9863L26.201 22.3097C26.7277 23.0392 26.9717 23.9351 26.8876 24.831C26.8035 25.7269 26.3971 26.5618 25.7438 27.1805L24.3004 28.5463C23.7985 29.0217 23.189 29.3687 22.5239 29.5575C21.8588 29.7464 21.1579 29.7715 20.481 29.6308C16.4616 28.7943 12.8604 25.5577 9.6467 19.992C6.43184 14.4228 5.42956 9.67997 6.72099 5.7794C6.93716 5.12638 7.30735 4.53498 7.80028 4.05519C8.2932 3.5754 8.89322 3.2213 9.55184 3.02283ZM10.049 4.66397C9.6538 4.783 9.29307 4.99541 8.99727 5.28325C8.70148 5.57108 8.47932 5.92589 8.34956 6.31769C7.23642 9.67883 8.13813 13.9485 11.1324 19.1348C14.1244 24.3177 17.3678 27.232 20.8318 27.952C21.238 28.0363 21.6585 28.021 22.0575 27.9076C22.4566 27.7942 22.8222 27.5859 23.1233 27.3005L24.5656 25.936C24.9174 25.6029 25.1364 25.1533 25.1818 24.6709C25.2272 24.1885 25.096 23.706 24.8124 23.3131L23.1347 20.9885C22.8905 20.6501 22.5466 20.3964 22.151 20.2632C21.7555 20.13 21.3282 20.1239 20.929 20.2457L18.2147 21.0765C16.713 21.5234 15.3004 20.272 13.7667 17.6137C12.4673 15.3645 12.017 13.7394 12.5724 12.6045C12.6806 12.3836 12.8246 12.1889 13.0044 12.0205L15.0673 10.0971C15.3729 9.81229 15.5817 9.43891 15.6643 9.02937C15.7469 8.61984 15.6992 8.19472 15.5278 7.81369L14.3461 5.18854C14.147 4.74541 13.7934 4.38991 13.3513 4.18844C12.9092 3.98696 12.4089 3.95328 11.9438 4.09369L10.049 4.66397Z" fill="#181C2A"/>
</svg>
